<svg width="386" height="312" version="1.1" xmlns="http://www.w3.org/2000/svg" desc="Created with imagetracer.js version 1.2.6" ><path fill="rgb(0,0,0)" stroke="rgb(0,0,0)" stroke-width="1" opacity="0" d="M 0 0 L 386 0 L 386 312 L 0 312 L 0 0 Z M 83 39 L 78 41 L 72 49 L 72 66 L 74 70 L 74 88 L 75 89 L 76 118 L 71 121 L 69 124 L 64 127 Q 61 126 62 129 L 49 138 Q 50 140 47 139 L 42 144 L 44 145 L 129 145 L 129 143 L 96 118 L 97 90 L 98 89 L 98 70 L 100 67 L 100 49 L 98 45 Q 95 37 83 39 Z M 166 75 L 166 132 L 222 132 L 222 133 L 222 262 L 275 262 L 275 132 L 328 132 L 328 75 L 166 75 Z M 44 147 L 42 149 L 42 195 L 47 198 L 59 198 L 64 189 L 67 196 L 70 198 L 127 198 L 130 195 L 130 149 L 129 147 L 44 147 Z " /><path fill="rgb(0,0,0)" stroke="rgb(0,0,0)" stroke-width="1" opacity="0" d="M 171 80 L 322.5 80 L 323 80.5 L 323 127 L 269.5 127 Q 268.5 127 269 131.5 L 270 132.5 L 270 257 L 227 257 L 227 132 Q 230 133 229 130 L 226 130 L 225.5 127 L 171 127 L 171 80 Z " /><path fill="rgb(136,129,23)" stroke="rgb(136,129,23)" stroke-width="1" opacity="1" d="M 84.5 39 Q 94.6 38.9 98 45.5 L 99 48.5 L 99 66.5 L 98 67.5 L 97 100.5 L 96 101.5 Q 97.5 111 95 116.5 L 96 119 L 128 142.5 L 127.5 144 L 44 144 L 46.5 140 L 76 119 L 77 112.5 L 76 111.5 L 76 101.5 L 75 100.5 L 73 48.5 L 77.5 42 L 84.5 39 Z " /><path fill="rgb(136,129,23)" stroke="rgb(136,129,23)" stroke-width="1" opacity="1" d="M 166 75 L 328 75 L 328 132 L 275 132 L 275 262 L 222 262 L 222 132.5 L 221.5 132 L 166 132 L 166 75 Z M 171 80 L 171 127 L 226 127 L 226 130 L 229 130 Q 230 133 227 132 L 227 257 L 270 257 L 270 133 L 269 132 Q 268 127 270 127 L 323 127 L 323 81 L 323 80 L 171 80 Z " /><path fill="rgb(136,129,23)" stroke="rgb(136,129,23)" stroke-width="1" opacity="1" d="M 43 148 L 129 148 L 129 194.5 L 124.5 198 L 70.5 198 L 63.5 188 L 57.5 198 Q 46.3 200.2 43 194.5 L 43 148 Z M 49 150 L 45 156 L 45 169 L 48 168 L 51 169 L 47 169 L 47 194 L 50 194 L 51 189 L 52 194 L 53 180 L 55 179 L 53 188 Q 52 190 55 189 L 56 191 L 56 183 L 58 181 Q 60 182 59 179 L 62 179 L 62 184 L 64 184 L 67 179 L 67 182 Q 65 183 68 184 Q 73 182 71 189 L 74 189 L 76 189 L 76 170 L 77 170 L 77 188 L 91 188 Q 93 189 92 194 L 116 194 L 117 193 L 124 195 Q 127 194 126 190 L 120 190 L 119 189 Q 113 189 112 193 L 116 188 Q 119 189 118 186 L 118 184 L 120 184 L 121 184 L 121 177 Q 117 178 116 175 L 117 173 L 121 174 L 122 178 L 122 184 L 119 189 L 121 189 L 125 183 Q 123 176 126 175 Q 127 170 123 172 L 121 173 L 121 171 L 126 171 L 125 169 Q 126 166 122 167 L 122 166 L 122 164 Q 125 163 124 166 L 127 167 L 127 150 L 57 150 L 57 179 L 56 179 L 56 151 L 56 150 L 50 150 L 50 153 L 49 150 Z M 46 170 L 45 190 L 46 190 L 46 170 Z M 125 185 L 123 189 L 125 189 L 125 185 Z M 72 190 L 73 194 L 91 194 L 91 190 L 72 190 Z " /><path fill="rgb(136,129,23)" stroke="rgb(136,129,23)" stroke-width="1" opacity="1" d="M 108.5 176 L 113 176.5 L 108.5 177 L 108.5 176 Z " /><path fill="rgb(136,129,23)" stroke="rgb(136,129,23)" stroke-width="1" opacity="1" d="M 107.5 182 Q 112.3 180.7 111 184 Q 107.2 184.8 107.5 182 Z " /><path fill="rgb(136,129,23)" stroke="rgb(136,129,23)" stroke-width="1" opacity="1" d="M 104.5 188 L 103 190.5 L 103 193 L 97 193 L 97 189 L 103.5 189 L 104.5 188 Z " /><path fill="rgb(23,167,229)" stroke="rgb(23,167,229)" stroke-width="1" opacity="1" d="M 79.5 40 L 78.5 42 L 75.5 44 L 77.5 41 L 79.5 40 Z " /><path fill="rgb(23,167,229)" stroke="rgb(23,167,229)" stroke-width="1" opacity="1" d="M 92.5 40 L 98 44.5 L 94.5 42 L 92.5 40 Z " /><path fill="rgb(23,167,229)" stroke="rgb(23,167,229)" stroke-width="1" opacity="1" d="M 73.5 46 L 74 47.5 L 73 48.5 L 73 65.5 L 74 68.5 L 73 68.5 L 72 65.5 L 72 48.5 L 73.5 46 Z " /><path fill="rgb(23,167,229)" stroke="rgb(23,167,229)" stroke-width="1" opacity="1" d="M 98.5 46 L 100 48.5 L 100 66.5 L 98.5 69 L 98 67.5 L 99 66.5 L 99 48.5 L 98.5 46 Z " /><path fill="rgb(23,167,229)" stroke="rgb(23,167,229)" stroke-width="1" opacity="1" d="M 74.5 84 L 75 87.5 L 74 87.5 L 74.5 84 Z " /><path fill="rgb(23,167,229)" stroke="rgb(23,167,229)" stroke-width="1" opacity="1" d="M 97.5 84 L 98 88.5 L 97 88.5 L 97.5 84 Z " /><path fill="rgb(23,167,229)" stroke="rgb(23,167,229)" stroke-width="1" opacity="1" d="M 75.5 101 L 76 106.5 L 75 106.5 L 75.5 101 Z " /><path fill="rgb(23,167,229)" stroke="rgb(23,167,229)" stroke-width="1" opacity="1" d="M 96.5 101 L 97 106.5 L 96 106.5 L 96.5 101 Z " /><path fill="rgb(23,167,229)" stroke="rgb(23,167,229)" stroke-width="1" opacity="1" d="M 76.5 112 L 77 116.5 L 76 116.5 L 76.5 112 Z " /><path fill="rgb(23,167,229)" stroke="rgb(23,167,229)" stroke-width="1" opacity="1" d="M 95.5 114 L 96 116.5 L 95 116.5 L 95.5 114 Z " /><path fill="rgb(23,167,229)" stroke="rgb(23,167,229)" stroke-width="1" opacity="1" d="M 72.5 120 L 71.5 122 L 69.5 123 L 70.5 121 L 72.5 120 Z " /><path fill="rgb(23,167,229)" stroke="rgb(23,167,229)" stroke-width="1" opacity="1" d="M 99.5 120 L 105 124.5 L 101.5 122 L 99.5 120 Z " /><path fill="rgb(23,167,229)" stroke="rgb(23,167,229)" stroke-width="1" opacity="1" d="M 65.5 125 L 62.5 129 L 62 127 L 65.5 125 Z " /><path fill="rgb(23,167,229)" stroke="rgb(23,167,229)" stroke-width="1" opacity="1" d="M 106.5 125 L 108.5 128 L 106.5 125 Z " /><path fill="rgb(23,167,229)" stroke="rgb(23,167,229)" stroke-width="1" opacity="1" d="M 110.5 128 L 111.5 130 L 110.5 128 Z " /><path fill="rgb(23,167,229)" stroke="rgb(23,167,229)" stroke-width="1" opacity="1" d="M 57.5 131 L 56.5 133 L 57.5 131 Z " /><path fill="rgb(23,167,229)" stroke="rgb(23,167,229)" stroke-width="1" opacity="1" d="M 114.5 131 L 116.5 134 L 114.5 131 Z " /><path fill="rgb(23,167,229)" stroke="rgb(23,167,229)" stroke-width="1" opacity="1" d="M 118.5 134 L 124 138.5 L 120.5 136 L 118.5 134 Z " /><path fill="rgb(23,167,229)" stroke="rgb(23,167,229)" stroke-width="1" opacity="1" d="M 52.5 135 L 51.5 137 L 49.5 138 L 50.5 136 L 52.5 135 Z " /><path fill="rgb(23,167,229)" stroke="rgb(23,167,229)" stroke-width="1" opacity="1" d="M 46.5 139 L 48 139.5 L 44 142.5 L 44.5 144 L 128 144 L 125 139.5 L 129 142.5 L 128.5 145 L 43.5 145 L 42 143.5 L 46.5 139 Z " /><path fill="rgb(23,167,229)" stroke="rgb(23,167,229)" stroke-width="1" opacity="1" d="M 43.5 147 L 128.5 147 L 130 148.5 L 130 194.5 L 126.5 198 L 125 197.5 L 129 194.5 L 129 148 L 43 148 L 43 194.5 L 45 196.5 L 42 194.5 L 42 148.5 L 43.5 147 Z " /><path fill="rgb(23,167,229)" stroke="rgb(23,167,229)" stroke-width="1" opacity="1" d="M 48.5 150 L 49.5 153 L 50 150 L 55.5 150 L 56 150.5 L 56 178.5 L 57 178.5 L 57 150 L 127 150 L 126.5 167 L 124 166 Q 125.3 163 121.5 164 L 122 165.5 L 122 167 Q 125.7 165.5 125 168.5 L 126 171 L 121 171 L 121 172.5 L 122.5 172 Q 127.3 170.3 126 174.5 Q 123.3 176.3 125 182.5 L 120.5 189 L 119 189.5 L 126 190 Q 126.8 193.8 123.5 195 L 116.5 193 L 115.5 194 L 92 194 Q 93.3 189.4 90.5 188 L 77 188 L 77 169.5 L 76 169.5 L 76 188.5 L 73.5 189 L 71 188.5 Q 73.2 182.2 67.5 184 Q 65.5 180 63.5 184 L 62 184 L 62 179 L 59 179 Q 60.1 181.7 57.5 181 L 56 182.5 L 55.5 191 L 55 189 Q 52.3 190.1 53 187.5 Q 55.8 185.8 54 179.5 L 53 179.5 L 51.5 194 L 50.5 189 L 50 194 L 47 193.5 L 47 169.5 L 45 168.5 L 45 155.5 L 45.5 153 Q 46.8 155.3 48 152.5 L 48.5 150 Z M 48 168 L 48 169 L 51 169 L 48 168 Z M 117 173 Q 115 176 119 177 Q 123 178 121 174 L 117 173 Z M 109 176 L 109 177 L 113 177 L 109 176 Z M 122 177 L 121 184 L 122 184 L 122 177 Z M 67 179 L 66 182 L 67 182 L 67 179 Z M 108 182 Q 107 185 111 184 Q 112 181 108 182 Z M 120 184 L 118 186 Q 119 189 116 188 L 115 190 L 119 189 L 121 185 L 120 184 Z M 97 189 L 97 193 L 103 193 L 104 190 L 97 189 Z " /><path fill="rgb(23,167,229)" stroke="rgb(23,167,229)" stroke-width="1" opacity="1" d="M 45.5 170 L 46 189.5 L 45 189.5 L 45.5 170 Z " /><path fill="rgb(23,167,229)" stroke="rgb(23,167,229)" stroke-width="1" opacity="1" d="M 124.5 185 L 125 189 L 123 188.5 L 124.5 185 Z " /><path fill="rgb(23,167,229)" stroke="rgb(23,167,229)" stroke-width="1" opacity="1" d="M 63.5 188 L 64.5 190 L 63.5 188 Z " /><path fill="rgb(23,167,229)" stroke="rgb(23,167,229)" stroke-width="1" opacity="1" d="M 72 190 L 90.5 190 L 91 194 L 72.5 194 L 72 190 Z " /><path fill="rgb(23,167,229)" stroke="rgb(23,167,229)" stroke-width="1" opacity="1" d="M 61.5 192 L 61 193.5 L 58.5 198 L 59 196.5 L 61.5 192 Z " /><path fill="rgb(23,167,229)" stroke="rgb(23,167,229)" stroke-width="1" opacity="1" d="M 66.5 193 L 70 197.5 L 67 195.5 L 66.5 193 Z " /></svg>