<svg width="160" height="101" version="1.1" xmlns="http://www.w3.org/2000/svg" desc="Created with imagetracer.js version 1.2.6" ><path fill="rgb(0,0,0)" stroke="rgb(0,0,0)" stroke-width="1" opacity="0" d="M 0 0 L 160 0 L 160 101 L 0 101 L 0 0 Z M 73 24 L 71 26 L 71 44 L 67 44 L 68 50 L 75 65 Q 74 67 78 66 L 87 46 L 87 44 L 83 44 L 83 26 L 82 24 L 73 24 Z M 12 61 L 12 64 Q 20 71 32 76 L 43 80 L 63 84 L 92 84 L 103 82 L 105 82 L 123 76 L 139 67 L 140 63 L 138 63 L 121 73 L 110 77 L 103 78 L 101 78 L 96 80 L 87 80 L 86 81 L 70 81 L 69 80 L 55 79 L 53 79 L 32 72 L 19 64 Q 16 65 17 62 L 12 61 Z " /><path fill="rgb(69,137,167)" stroke="rgb(69,137,167)" stroke-width="1" opacity="1" d="M 72.5 24 L 81.5 24 L 83 25.5 L 82.5 44 L 82 25 L 72.5 25 L 71.5 26 L 72.5 24 Z " /><path fill="rgb(69,137,167)" stroke="rgb(69,137,167)" stroke-width="1" opacity="1" d="M 74 28 L 79 28.5 L 79 45.5 L 83 47.5 L 76.5 61 L 71 47 L 74 46.5 L 74 28 Z " /><path fill="rgb(69,137,167)" stroke="rgb(69,137,167)" stroke-width="1" opacity="1" d="M 68.5 49 L 70 51.5 L 69 51.5 L 68.5 49 Z " /><path fill="rgb(69,137,167)" stroke="rgb(69,137,167)" stroke-width="1" opacity="1" d="M 73.5 60 L 75 63.5 L 74 63.5 L 73.5 60 Z " /><path fill="rgb(69,137,167)" stroke="rgb(69,137,167)" stroke-width="1" opacity="1" d="M 14.5 61 L 17 62.5 L 15.5 63 L 14.5 61 Z " /><path fill="rgb(69,137,167)" stroke="rgb(69,137,167)" stroke-width="1" opacity="1" d="M 12.5 63 L 13.5 65 L 12.5 63 Z " /><path fill="rgb(69,137,167)" stroke="rgb(69,137,167)" stroke-width="1" opacity="1" d="M 139.5 63 L 140 65.5 L 138 66.5 L 139.5 63 Z " /><path fill="rgb(69,137,167)" stroke="rgb(69,137,167)" stroke-width="1" opacity="1" d="M 18.5 64 L 19.5 66 L 18.5 64 Z " /><path fill="rgb(69,137,167)" stroke="rgb(69,137,167)" stroke-width="1" opacity="1" d="M 17.5 67 L 18.5 69 L 17.5 67 Z " /><path fill="rgb(69,137,167)" stroke="rgb(69,137,167)" stroke-width="1" opacity="1" d="M 23.5 67 L 24.5 69 L 23.5 67 Z " /><path fill="rgb(69,137,167)" stroke="rgb(69,137,167)" stroke-width="1" opacity="1" d="M 130.5 67 L 132 67.5 L 129.5 69 L 130.5 67 Z " /><path fill="rgb(69,137,167)" stroke="rgb(69,137,167)" stroke-width="1" opacity="1" d="M 136.5 67 L 135.5 69 L 136.5 67 Z " /><path fill="rgb(69,137,167)" stroke="rgb(69,137,167)" stroke-width="1" opacity="1" d="M 20.5 69 L 21.5 71 L 20.5 69 Z " /><path fill="rgb(69,137,167)" stroke="rgb(69,137,167)" stroke-width="1" opacity="1" d="M 133.5 69 L 132.5 71 L 133.5 69 Z " /><path fill="rgb(69,137,167)" stroke="rgb(69,137,167)" stroke-width="1" opacity="1" d="M 32.5 72 L 36 73.5 L 34.5 74 L 32.5 72 Z " /><path fill="rgb(69,137,167)" stroke="rgb(69,137,167)" stroke-width="1" opacity="1" d="M 115.5 74 L 117 74.5 L 113.5 76 L 113.5 75 L 115.5 74 Z " /><path fill="rgb(69,137,167)" stroke="rgb(69,137,167)" stroke-width="1" opacity="1" d="M 105.5 77 L 108 77.5 L 105.5 78 L 105.5 77 Z " /><path fill="rgb(69,137,167)" stroke="rgb(69,137,167)" stroke-width="1" opacity="1" d="M 116.5 77 L 118 77.5 L 114.5 79 L 114.5 78 L 116.5 77 Z " /><path fill="rgb(69,137,167)" stroke="rgb(69,137,167)" stroke-width="1" opacity="1" d="M 53.5 78 L 59 79.5 L 54.5 80 L 53.5 78 Z " /><path fill="rgb(69,137,167)" stroke="rgb(69,137,167)" stroke-width="1" opacity="1" d="M 96.5 79 L 99 79.5 L 96.5 80 L 96.5 79 Z " /><path fill="rgb(69,137,167)" stroke="rgb(69,137,167)" stroke-width="1" opacity="1" d="M 46.5 80 L 49 80.5 L 46.5 81 L 46.5 80 Z " /><path fill="rgb(69,137,167)" stroke="rgb(69,137,167)" stroke-width="1" opacity="1" d="M 62.5 80 L 69 80.5 L 62.5 81 L 62.5 80 Z " /><path fill="rgb(69,137,167)" stroke="rgb(69,137,167)" stroke-width="1" opacity="1" d="M 86.5 80 L 92 80.5 L 86.5 81 L 86.5 80 Z " /><path fill="rgb(69,137,167)" stroke="rgb(69,137,167)" stroke-width="1" opacity="1" d="M 105.5 80 L 108 80.5 L 104.5 82 L 105.5 80 Z " /><path fill="rgb(69,137,167)" stroke="rgb(69,137,167)" stroke-width="1" opacity="1" d="M 54.5 82 L 58 82.5 L 54.5 83 L 54.5 82 Z " /><path fill="rgb(69,137,167)" stroke="rgb(69,137,167)" stroke-width="1" opacity="1" d="M 96.5 82 L 100 82.5 L 96.5 83 L 96.5 82 Z " /><path fill="rgb(69,137,167)" stroke="rgb(69,137,167)" stroke-width="1" opacity="1" d="M 62.5 83 L 69 83.5 L 62.5 84 L 62.5 83 Z " /><path fill="rgb(69,137,167)" stroke="rgb(69,137,167)" stroke-width="1" opacity="1" d="M 86.5 83 L 92 83.5 L 86.5 84 L 86.5 83 Z " /><path fill="rgb(1,1,1)" stroke="rgb(1,1,1)" stroke-width="1" opacity="1" d="M 72.5 25 L 82 25 L 82 43.5 L 86 44 L 86 47.5 L 78 66 L 75 64.5 L 67 45.5 L 71 44 L 71 26.5 L 72.5 25 Z M 74 28 L 74 47 L 71 47 L 77 61 L 83 48 L 79 46 L 79 29 L 74 28 Z " /><path fill="rgb(1,1,1)" stroke="rgb(1,1,1)" stroke-width="1" opacity="1" d="M 13.5 61 Q 22.2 69.3 34.5 74 L 47.5 78 L 51.5 78 L 54.5 80 Q 60.7 78.3 62.5 81 L 91.5 81 L 114.5 76 Q 128.7 70.7 139 63 L 137.5 67 Q 125.8 75.8 109.5 80 L 95.5 83 L 69.5 84 L 68.5 83 L 52.5 82 L 38.5 78 L 22.5 71 L 12 62.5 L 13.5 61 Z " /></svg>