<svg width="90" height="65" version="1.1" xmlns="http://www.w3.org/2000/svg" desc="Created with imagetracer.js version 1.2.6" ><path fill="rgb(76,82,83)" stroke="rgb(76,82,83)" stroke-width="1" opacity="1" d="M 45 11 L 47 11.5 L 47 52.5 L 49.5 51 L 51 51.5 L 46.5 57 L 43 54.5 L 41 51.5 L 42.5 51 L 45 52 L 45 11 Z " /><path fill="rgb(76,82,83)" stroke="rgb(76,82,83)" stroke-width="1" opacity="1" d="M 33 29 L 35 29.5 L 35 48.5 L 36.5 48 L 39 48.5 L 34.5 54 L 29 50 Q 27.8 47 31.5 48 L 33 48.5 L 33 29 Z " /><path fill="rgb(76,82,83)" stroke="rgb(76,82,83)" stroke-width="1" opacity="1" d="M 57 29 L 59 29.5 L 59 48.5 L 60.5 48 L 63 48.5 L 57 53.5 L 53 48.5 L 55.5 48 L 57 48.5 L 57 29 Z " /><path fill="rgb(76,82,83)" stroke="rgb(76,82,83)" stroke-width="1" opacity="1" d="M 5 50 L 11 52.5 L 10 55.5 L 12 54.5 Q 11.2 51.9 14.5 53 L 18.5 56 L 20.5 55 L 24.5 57 L 35.5 59 L 56.5 59 L 67.5 57 L 80 53 L 81.5 56 L 82 54.5 L 81 52.5 L 87 50 L 88 53.5 L 80.5 58 L 61 63 L 62 60.5 Q 60.8 57.8 59.5 60 L 58 60.5 L 60 61 Q 61.3 64 57.5 63 L 54 64 L 55 61.5 Q 53.7 58.7 52.5 61 L 37 61.5 L 38 64 L 32 63 Q 30.9 60.3 33.5 61 L 33.5 60 L 30 60.5 L 31 63 L 25 62 Q 23.8 59 27.5 60 L 27.5 59 L 24.5 58 L 24 61 Q 11.8 59.9 4 53.5 L 5 50 Z M 16 56 L 17 57 L 18 59 L 20 58 L 16 56 Z M 75 56 L 73 57 L 73 58 L 77 57 L 75 56 Z M 68 58 L 64 60 L 68 60 L 68 58 Z " /><path fill="rgb(76,82,83)" stroke="rgb(76,82,83)" stroke-width="1" opacity="1" d="M 39 62 L 52.5 62 L 53 64 L 39.5 64 L 39 62 Z " /><path fill="rgb(0,0,0)" stroke="rgb(0,0,0)" stroke-width="1" opacity="0" d="M 0 0 L 90 0 L 90 65 L 0 65 L 0 0 Z M 45 11 L 45 52 L 43 51 L 41 52 L 43 55 L 47 57 L 51 52 L 50 51 L 47 53 L 47 12 L 45 11 Z M 33 29 L 33 49 L 32 48 Q 28 47 29 50 L 35 54 L 39 49 L 37 48 L 35 49 L 35 30 L 33 29 Z M 57 29 L 57 49 L 56 48 L 53 49 L 57 54 L 63 49 L 61 48 L 59 49 L 59 30 L 57 29 Z M 5 50 L 5 52 L 9 53 L 9 54 L 5 52 L 4 54 L 15 59 Q 18 60 17 57 L 15 57 L 18 56 L 15 53 Q 11 52 12 55 L 14 56 L 13 56 L 10 56 L 11 53 L 5 50 Z M 86 50 L 81 53 L 82 56 L 88 54 L 88 52 L 85 54 L 83 54 L 87 52 Q 88 49 86 50 Z M 78 53 L 68 57 L 57 59 L 36 59 L 25 57 L 21 55 L 18 57 L 20 58 L 17 60 L 24 61 L 25 58 L 28 59 L 28 60 Q 24 59 25 62 L 31 63 L 30 61 L 34 60 L 34 61 Q 31 60 32 63 L 38 64 L 37 62 L 53 61 Q 54 59 55 62 L 54 64 L 58 63 Q 61 64 60 61 L 58 61 L 60 60 Q 61 58 62 61 L 61 63 L 72 61 L 82 57 Q 81 54 80 56 L 78 56 L 80 55 Q 81 52 78 53 Z M 39 62 L 40 64 L 53 64 L 53 62 L 39 62 Z " /><path fill="rgb(0,0,0)" stroke="rgb(0,0,0)" stroke-width="1" opacity="0" d="M 74.5 56 L 77 56.5 L 72.5 58 L 72.5 57 L 74.5 56 Z " /><path fill="rgb(0,0,0)" stroke="rgb(0,0,0)" stroke-width="1" opacity="0" d="M 67.5 58 L 68 60 L 64 59.5 L 67.5 58 Z " /></svg>