<svg width="171" height="181" version="1.1" xmlns="http://www.w3.org/2000/svg" desc="Created with imagetracer.js version 1.2.6" ><path fill="rgb(0,0,0)" stroke="rgb(0,0,0)" stroke-width="1" opacity="0" d="M 0 0 L 171 0 L 171 181 L 0 181 L 0 0 Z M 129 12 L 127 16 L 129 17 L 137 18 L 140 23 L 140 32 L 136 39 Q 124 54 99 55 L 101 48 L 98 46 Q 93 51 92 59 L 92 61 L 91 63 L 110 68 L 111 65 L 100 61 Q 120 58 133 49 Q 141 43 145 32 Q 147 22 143 18 L 136 12 L 129 12 Z M 28 22 L 28 147 L 134 147 L 134 119 L 53 119 L 53 23 L 53 22 L 28 22 Z M 13 153 L 11 157 L 13 158 L 147 158 L 148 155 L 147 153 L 13 153 Z M 13 159 L 11 163 L 13 164 L 140 164 L 141 161 L 140 159 L 13 159 Z " /><path fill="rgb(153,217,234)" stroke="rgb(153,217,234)" stroke-width="1" opacity="1" d="M 12.5 159 L 139.5 159 L 141 160.5 L 139.5 164 L 12.5 164 L 11 162.5 L 12.5 159 Z " /><path fill="rgb(0,162,232)" stroke="rgb(0,162,232)" stroke-width="1" opacity="1" d="M 33 27 L 47.5 27 L 48 27.5 L 48 122.5 Q 48.1 123.6 53.5 123 L 54.5 124 L 129 124 L 129 141.5 L 128.5 142 L 33 142 L 33 27 Z " /><path fill="rgb(0,162,232)" stroke="rgb(0,162,232)" stroke-width="1" opacity="1" d="M 12.5 153 L 146.5 153 L 148 154.5 L 146.5 158 L 12.5 158 L 11 156.5 L 12.5 153 Z " /><path fill="rgb(0,0,0)" stroke="rgb(0,0,0)" stroke-width="1" opacity="1" d="M 128.5 12 L 135.5 12 L 143 17.5 Q 146.7 21.8 145 31.5 Q 141.3 42.8 132.5 49 Q 119.8 58.3 100 60.5 L 111 64.5 L 109.5 68 L 91 63 L 92 60.5 L 92 58.5 Q 93.3 50.8 97.5 46 L 101 47.5 L 99 55 Q 123.7 53.5 136 38.5 L 140 31.5 L 140 22.5 L 136.5 18 L 128.5 17 L 127 15.5 L 128.5 12 Z " /><path fill="rgb(0,0,0)" stroke="rgb(0,0,0)" stroke-width="1" opacity="1" d="M 28 22 L 52.5 22 L 53 22.5 L 53 119 L 134 119 L 134 147 L 28 147 L 28 22 Z M 33 27 L 33 142 L 129 142 L 129 142 L 129 124 L 55 124 L 54 123 Q 48 124 48 123 L 48 28 L 48 27 L 33 27 Z " /></svg>