<svg width="300" height="262" version="1.1" xmlns="http://www.w3.org/2000/svg" desc="Created with imagetracer.js version 1.2.6" ><path fill="rgb(45,52,157)" stroke="rgb(45,52,157)" stroke-width="1" opacity="1" d="M 29.5 25 L 188 25.5 L 29.5 26 L 29.5 25 Z " /><path fill="rgb(45,52,157)" stroke="rgb(45,52,157)" stroke-width="1" opacity="1" d="M 33.5 29 L 184 29.5 L 33.5 30 L 33.5 29 Z " /><path fill="rgb(45,52,157)" stroke="rgb(45,52,157)" stroke-width="1" opacity="1" d="M 185.5 29 L 186 71.5 L 185 71.5 L 185.5 29 Z " /><path fill="rgb(45,52,157)" stroke="rgb(45,52,157)" stroke-width="1" opacity="1" d="M 31.5 30 L 32 70.5 L 31 70.5 L 31.5 30 Z " /><path fill="rgb(45,52,157)" stroke="rgb(45,52,157)" stroke-width="1" opacity="1" d="M 85.5 72 L 89 72.5 L 89 205.5 L 88 205.5 L 88 73.5 L 85.5 73 L 85.5 72 Z " /><path fill="rgb(45,52,157)" stroke="rgb(45,52,157)" stroke-width="1" opacity="1" d="M 128.5 72 L 133 72.5 L 128.5 73 L 128.5 72 Z " /><path fill="rgb(45,52,157)" stroke="rgb(45,52,157)" stroke-width="1" opacity="1" d="M 29.5 75 L 84 75.5 L 29.5 76 L 29.5 75 Z " /><path fill="rgb(45,52,157)" stroke="rgb(45,52,157)" stroke-width="1" opacity="1" d="M 132.5 75 L 188 75.5 L 132.5 76 L 132.5 75 Z " /><path fill="rgb(45,52,157)" stroke="rgb(45,52,157)" stroke-width="1" opacity="1" d="M 195.5 100 L 269.5 100 L 271 101.5 L 270.5 132 L 270 101 L 195 101 L 195 131.5 L 194 131.5 L 194 101.5 L 195.5 100 Z " /><path fill="rgb(45,52,157)" stroke="rgb(45,52,157)" stroke-width="1" opacity="1" d="M 194.5 137 L 195 229.5 L 194 229.5 L 194.5 137 Z " /><path fill="rgb(45,52,157)" stroke="rgb(45,52,157)" stroke-width="1" opacity="1" d="M 270.5 137 L 271 229.5 L 270 229.5 L 270.5 137 Z " /><path fill="rgb(45,52,157)" stroke="rgb(45,52,157)" stroke-width="1" opacity="1" d="M 206.5 165 L 207 167 L 251 167.5 L 207.5 168 L 206.5 165 Z " /><path fill="rgb(45,52,157)" stroke="rgb(45,52,157)" stroke-width="1" opacity="1" d="M 205.5 189 L 204.5 191 L 205.5 189 Z " /><path fill="rgb(45,52,157)" stroke="rgb(45,52,157)" stroke-width="1" opacity="1" d="M 204.5 210 L 205 212 L 251 212.5 L 205.5 213 L 204.5 210 Z " /><path fill="rgb(0,0,0)" stroke="rgb(0,0,0)" stroke-width="1" opacity="1" d="M 28.5 25 L 29.5 26 L 187.5 26 L 189 25.5 L 188.5 76 L 187.5 75 L 132 75 L 132 210 L 85 210 L 85 76.5 L 83.5 75 L 29.5 75 L 28.5 76 L 28.5 25 Z M 33 29 L 31 31 L 31 71 L 33 72 L 85 72 L 86 73 L 88 74 L 88 206 L 128 206 L 128 206 L 128 73 L 134 72 L 186 72 L 186 30 L 186 29 L 33 29 Z " /><path fill="rgb(0,0,0)" stroke="rgb(0,0,0)" stroke-width="1" opacity="0" d="M 0 0 L 300 0 L 300 262 L 0 262 L 0 0 Z M 27 25 L 27 76 L 84 76 L 84 77 L 84 210 L 132 210 L 132 76 L 190 76 L 190 26 L 190 25 L 27 25 Z M 191 97 L 191 235 L 274 235 L 274 97 L 191 97 Z " /><path fill="rgb(0,0,0)" stroke="rgb(0,0,0)" stroke-width="1" opacity="0" d="M 195 101 L 270 101 L 270 132 L 195 132 L 195 101 Z " /><path fill="rgb(0,0,0)" stroke="rgb(0,0,0)" stroke-width="1" opacity="0" d="M 195 137 L 270 137 L 270 230 L 195 230 L 195 137 Z M 208 164 L 206 168 L 252 168 L 252 166 L 251 164 L 208 164 Z M 205 188 L 203 192 L 205 193 L 257 193 L 258 190 L 257 188 L 205 188 Z M 205 209 L 203 211 L 205 213 L 252 213 L 252 211 L 251 209 L 205 209 Z " /><path fill="rgb(63,72,204)" stroke="rgb(63,72,204)" stroke-width="1" opacity="1" d="M 32.5 29 L 33.5 30 L 183.5 30 L 185 29.5 L 185 72 L 128.5 72 L 128 72.5 L 128 206 L 89 206 L 89 72.5 L 88.5 72 L 32 72 L 32.5 29 Z " /><path fill="rgb(63,72,204)" stroke="rgb(63,72,204)" stroke-width="1" opacity="1" d="M 191 97 L 274 97 L 274 232.5 L 272.5 234 L 192.5 234 L 191 232.5 L 191 97 Z M 196 100 L 194 102 L 194 132 L 196 133 L 270 133 L 271 132 L 271 102 L 270 100 L 196 100 Z M 196 136 L 194 138 L 194 230 L 196 231 L 270 231 L 271 230 L 271 138 L 270 136 L 196 136 Z " /><path fill="rgb(63,72,204)" stroke="rgb(63,72,204)" stroke-width="1" opacity="1" d="M 207 164 L 250.5 164 L 252 165.5 L 251.5 167 L 207 167 L 207 164 Z " /><path fill="rgb(63,72,204)" stroke="rgb(63,72,204)" stroke-width="1" opacity="1" d="M 204.5 189 L 206.5 189 L 257 189.5 L 256.5 192 L 204 191.5 L 204.5 189 Z " /><path fill="rgb(63,72,204)" stroke="rgb(63,72,204)" stroke-width="1" opacity="1" d="M 205 209 L 250.5 209 L 252 210.5 L 251.5 212 L 205 212 L 205 209 Z " /><path fill="rgb(154,157,196)" stroke="rgb(154,157,196)" stroke-width="1" opacity="1" d="M 27.5 25 L 28 75.5 L 27 75.5 L 27.5 25 Z " /><path fill="rgb(154,157,196)" stroke="rgb(154,157,196)" stroke-width="1" opacity="1" d="M 189.5 25 L 190 75.5 L 189 75.5 L 189.5 25 Z " /><path fill="rgb(154,157,196)" stroke="rgb(154,157,196)" stroke-width="1" opacity="1" d="M 84.5 76 L 85 209.5 L 84 209.5 L 84.5 76 Z " /><path fill="rgb(154,157,196)" stroke="rgb(154,157,196)" stroke-width="1" opacity="1" d="M 195.5 132 L 270 132.5 L 195.5 133 L 195.5 132 Z " /><path fill="rgb(154,157,196)" stroke="rgb(154,157,196)" stroke-width="1" opacity="1" d="M 195.5 136 L 270 136.5 L 195.5 137 L 195.5 136 Z " /><path fill="rgb(154,157,196)" stroke="rgb(154,157,196)" stroke-width="1" opacity="1" d="M 204.5 188 L 256.5 188 L 258 189.5 L 256.5 193 L 204.5 193 L 203 191.5 L 204.5 188 Z M 204 189 L 205 192 L 257 192 L 257 189 L 204 189 Z " /><path fill="rgb(154,157,196)" stroke="rgb(154,157,196)" stroke-width="1" opacity="1" d="M 204.5 209 L 204 210.5 L 205 212.5 L 203 211.5 L 204.5 209 Z " /><path fill="rgb(154,157,196)" stroke="rgb(154,157,196)" stroke-width="1" opacity="1" d="M 195.5 230 L 270 230.5 L 195.5 231 L 195.5 230 Z " /><path fill="rgb(154,157,196)" stroke="rgb(154,157,196)" stroke-width="1" opacity="1" d="M 191.5 234 L 274 234.5 L 191.5 235 L 191.5 234 Z " /></svg>