<svg width="477" height="538" version="1.1" xmlns="http://www.w3.org/2000/svg" desc="Created with imagetracer.js version 1.2.6" ><path fill="rgb(0,0,0)" stroke="rgb(0,0,0)" stroke-width="1" opacity="0" d="M 0 0 L 477 0 L 477 538 L 0 538 L 0 0 Z M 132 49 L 129 50 L 128 54 Q 129 57 126 56 Q 125 65 121 72 Q 123 77 119 76 L 113 98 L 111 101 Q 112 104 109 103 Q 110 108 107 111 Q 108 114 105 113 L 101 127 L 101 129 Q 98 128 99 131 L 126 131 L 126 127 L 128 127 L 129 124 L 129 120 Q 132 121 132 118 L 158 118 L 161 130 L 164 131 L 190 131 L 184 114 Q 185 110 182 111 L 175 88 Q 176 85 173 86 L 173 82 L 171 82 L 171 79 L 169 79 L 168 73 L 163 61 Q 164 56 161 57 L 159 52 L 159 49 L 132 49 Z M 198 49 L 198 131 L 264 131 L 264 111 L 225 111 L 225 49 L 198 49 Z M 274 49 L 274 131 L 341 131 L 341 111 L 302 111 L 302 49 L 274 49 Z M 94 172 L 93 175 Q 92 184 96 188 Q 95 192 98 191 L 101 196 Q 103 195 102 198 L 110 199 L 112 201 Q 118 201 123 204 L 140 206 L 141 207 L 161 208 L 162 209 L 186 209 L 187 210 L 197 210 L 198 211 L 255 211 L 256 210 L 268 210 L 269 209 L 295 208 Q 296 206 302 207 L 306 205 Q 310 204 312 206 L 323 204 L 325 202 L 330 202 L 334 199 L 342 198 L 344 195 L 347 193 L 352 182 L 352 173 L 350 172 L 94 172 Z M 208 213 L 206 215 L 206 238 L 111 238 L 106 239 L 101 242 L 98 246 L 94 248 L 91 256 L 92 258 L 90 262 Q 92 269 88 268 L 88 275 L 87 276 L 87 285 L 84 285 L 85 288 L 85 294 L 83 300 L 83 308 L 81 311 L 82 313 L 80 315 L 79 337 L 77 340 L 77 350 L 75 350 L 74 372 L 72 375 Q 73 381 70 384 L 71 386 L 69 389 Q 70 393 68 395 L 67 412 L 64 417 L 64 423 L 62 429 L 61 451 L 58 455 L 58 462 Q 62 465 62 471 L 72 475 L 373 475 L 374 474 L 378 474 L 378 472 Q 382 473 381 471 L 384 469 L 386 465 L 386 451 Q 383 446 384 438 L 381 434 L 382 431 L 381 429 L 381 421 L 379 420 L 377 398 L 374 394 L 375 392 L 373 387 L 374 385 L 373 383 L 373 372 L 371 364 L 371 357 L 369 355 Q 370 349 367 348 L 367 333 L 365 332 L 364 318 L 361 314 L 359 286 Q 357 284 358 279 L 356 276 L 355 260 L 354 259 L 355 255 Q 351 253 351 248 L 350 248 L 344 243 Q 341 244 342 241 L 335 238 L 240 238 L 239 238 L 239 216 L 238 214 L 208 213 Z " /><path fill="rgb(0,0,0)" stroke="rgb(0,0,0)" stroke-width="1" opacity="0" d="M 144.5 72 L 148 83.5 L 148 88 Q 151.3 86.7 150 91.5 L 151 96 Q 154 94.8 153 98.5 L 153.5 100 L 137.5 100 L 137 97.5 L 140 85 Q 143.7 86.3 142 80.5 L 144.5 72 Z " /><path fill="rgb(0,0,0)" stroke="rgb(0,0,0)" stroke-width="1" opacity="0" d="M 217.5 273 Q 225.5 271 227.5 275 L 230.5 273 L 232.5 275 L 251.5 276 L 259.5 279 L 270.5 286 L 273 286 L 275.5 290 L 278.5 290 L 283.5 295 Q 284.7 292.8 286 295.5 L 287.5 298 Q 289.8 297.3 289 299.5 L 290 302 L 294 303.5 L 293.5 305 L 296 306.5 L 297.5 309 Q 299.8 308.3 299 310.5 L 300 314 Q 302.7 312.9 302 315.5 Q 304.8 317.2 304 322.5 L 307 325.5 L 307 329 L 309 329 Q 307.7 333.1 311 332 L 311 335.5 L 314 348.5 L 314 367.5 L 312 370.5 L 312 372.5 L 312 376.5 L 310 379.5 L 309 387 L 306 388.5 Q 308.5 390 305 391.5 L 299 404.5 L 295.5 408 L 293 409.5 L 290.5 414 Q 284.6 420.3 276 423 L 275.5 426 Q 274 423.5 272.5 427 L 261.5 433 L 257.5 433 L 255.5 435 L 249.5 436 L 244.5 439 L 216.5 440 L 213.5 439 L 205.5 439 L 194.5 437 L 168 425 Q 169.7 420.9 165.5 422 L 161 418.5 Q 161.9 415.5 157.5 417 L 155 416 L 155 413 Q 152 414.3 153 410.5 L 149 408 L 145 399.5 L 139 393.5 L 139 390 L 137 389.5 Q 139.5 388 136 386.5 L 135.5 384 L 134 384.5 L 135 381.5 L 133 377.5 L 133 372.5 L 131 365.5 L 131 354.5 L 132 353.5 L 132 342.5 Q 134.7 339.2 134 332.5 L 136.5 328 Q 141.1 329.4 139 323.5 Q 136.5 322 140 320.5 L 140 318.5 L 146 310 Q 148.7 311.1 148 308.5 L 149 306 L 153 304.5 L 153 302 Q 155.7 303.1 155 300.5 L 160.5 294 L 165 292 Q 163.7 288.7 168.5 290 Q 169.8 287 174 288 L 176.5 284 Q 180.9 285.5 180 282.5 Q 181.8 284.1 183.5 281 L 192 278 L 192.5 276 L 194.5 276 L 209.5 275 L 217.5 273 Z M 222 279 L 221 286 L 221 288 L 221 296 L 222 297 Q 220 302 224 301 L 224 280 L 222 279 Z M 181 290 Q 179 295 183 297 Q 182 299 185 298 L 184 300 Q 183 302 187 301 Q 186 305 189 307 Q 188 311 191 310 L 191 307 L 187 300 L 187 297 L 181 290 Z M 263 290 L 262 293 Q 263 295 260 294 L 255 303 Q 256 306 253 305 L 253 309 L 255 309 L 257 304 L 260 302 L 263 294 L 266 293 Q 267 288 263 290 Z M 222 304 L 219 308 Q 221 313 218 315 L 216 348 L 214 350 Q 210 349 211 352 L 207 354 L 206 359 Q 205 367 209 371 L 214 375 L 218 376 Q 227 377 232 374 L 234 371 Q 238 372 236 368 L 239 367 L 238 365 L 239 363 Q 241 355 236 354 Q 237 351 234 352 L 234 350 L 231 350 L 228 348 L 228 340 L 227 339 L 228 337 L 226 336 L 226 320 L 224 318 L 224 309 L 223 308 Q 224 303 222 304 Z M 258 309 Q 256 312 259 311 L 258 309 Z M 152 315 L 149 319 L 154 321 Q 156 320 155 323 L 159 324 L 161 328 L 165 330 L 168 329 L 170 329 Q 172 330 171 327 L 169 328 L 166 325 L 157 320 Q 154 321 155 318 L 153 318 Q 154 314 152 315 Z M 294 316 L 282 324 Q 278 323 279 326 L 275 328 L 275 329 Q 283 330 286 325 Q 288 326 287 323 L 296 319 Q 298 315 294 316 Z M 289 330 L 287 332 L 289 332 L 289 330 Z M 201 332 L 199 334 L 201 334 L 201 332 Z M 232 332 L 230 334 L 232 334 L 232 332 Z M 189 334 L 188 337 L 189 337 L 189 334 Z M 140 354 L 138 355 L 140 358 L 155 358 L 156 357 Q 162 358 161 356 L 160 354 L 140 354 Z M 287 354 L 285 355 L 285 356 Q 290 354 289 358 L 304 358 L 305 357 Q 308 358 307 355 L 304 354 L 287 354 Z M 277 384 L 275 387 Q 280 387 282 390 Q 285 389 284 392 L 289 394 L 292 394 L 277 384 Z M 166 385 L 165 386 Q 162 385 163 388 Q 160 387 159 390 L 155 390 L 153 394 Q 157 395 159 392 Q 162 393 161 391 L 169 387 Q 170 384 166 385 Z M 149 394 Q 148 398 153 396 Q 154 392 149 394 Z M 292 394 Q 291 398 296 396 Q 297 392 292 394 Z M 189 405 L 187 409 L 187 412 L 179 423 L 181 423 Q 188 419 189 409 L 192 407 Q 193 404 189 405 Z M 255 405 L 253 407 L 255 410 Q 254 412 257 411 L 259 417 Q 258 419 261 418 L 264 424 L 266 423 Q 268 419 263 420 Q 261 411 255 405 Z M 222 413 L 222 434 L 224 434 L 224 414 L 222 413 Z " /><path fill="rgb(221,133,67)" stroke="rgb(221,133,67)" stroke-width="1" opacity="1" d="M 98.5 184 L 97.5 186 L 98.5 184 Z " /><path fill="rgb(221,133,67)" stroke="rgb(221,133,67)" stroke-width="1" opacity="1" d="M 215.5 217 L 214.5 219 L 215.5 217 Z " /><path fill="rgb(221,133,67)" stroke="rgb(221,133,67)" stroke-width="1" opacity="1" d="M 215.5 220 L 214.5 222 L 215.5 220 Z " /><path fill="rgb(221,133,67)" stroke="rgb(221,133,67)" stroke-width="1" opacity="1" d="M 332.5 245 L 332 246.5 L 331.5 248 L 331 246.5 L 332.5 245 Z " /><path fill="rgb(221,133,67)" stroke="rgb(221,133,67)" stroke-width="1" opacity="1" d="M 110.5 246 L 110 247.5 L 109.5 249 L 109 247.5 L 110.5 246 Z " /><path fill="rgb(221,133,67)" stroke="rgb(221,133,67)" stroke-width="1" opacity="1" d="M 127.5 329 L 126.5 331 L 127.5 329 Z " /><path fill="rgb(221,133,67)" stroke="rgb(221,133,67)" stroke-width="1" opacity="1" d="M 305.5 408 L 305 409.5 L 304.5 411 L 304 409.5 L 305.5 408 Z " /><path fill="rgb(221,133,67)" stroke="rgb(221,133,67)" stroke-width="1" opacity="1" d="M 75.5 409 Q 77.8 408.3 77 410.5 L 75.5 409 Z " /><path fill="rgb(221,133,67)" stroke="rgb(221,133,67)" stroke-width="1" opacity="1" d="M 302.5 409 L 301.5 411 L 302.5 409 Z " /><path fill="rgb(221,133,67)" stroke="rgb(221,133,67)" stroke-width="1" opacity="1" d="M 74.5 413 L 75 415 L 73 414.5 L 74.5 413 Z " /><path fill="rgb(221,133,67)" stroke="rgb(221,133,67)" stroke-width="1" opacity="1" d="M 71.5 422 L 70.5 424 L 71.5 422 Z " /><path fill="rgb(221,133,67)" stroke="rgb(221,133,67)" stroke-width="1" opacity="1" d="M 294.5 425 L 296 425.5 L 293.5 427 L 294.5 425 Z " /><path fill="rgb(221,133,67)" stroke="rgb(221,133,67)" stroke-width="1" opacity="1" d="M 291.5 427 L 292.5 429 L 290 428.5 L 291.5 427 Z " /><path fill="rgb(221,133,67)" stroke="rgb(221,133,67)" stroke-width="1" opacity="1" d="M 280.5 435 L 281.5 437 L 280 436.5 L 279.5 438 L 279 436.5 L 280.5 435 Z " /><path fill="rgb(221,133,67)" stroke="rgb(221,133,67)" stroke-width="1" opacity="1" d="M 262.5 439 L 261.5 441 L 262.5 439 Z " /><path fill="rgb(53,173,223)" stroke="rgb(53,173,223)" stroke-width="1" opacity="1" d="M 198.5 49 L 199 130.5 L 198 130.5 L 198.5 49 Z " /><path fill="rgb(53,173,223)" stroke="rgb(53,173,223)" stroke-width="1" opacity="1" d="M 274 49 L 276 49.5 L 276 131 L 274 130.5 L 274 49 Z " /><path fill="rgb(53,173,223)" stroke="rgb(53,173,223)" stroke-width="1" opacity="1" d="M 158.5 50 L 161 57.5 L 160 57.5 L 158.5 50 Z " /><path fill="rgb(53,173,223)" stroke="rgb(53,173,223)" stroke-width="1" opacity="1" d="M 126 57 Q 129 56 128 59 Q 125 60 126 57 Z " /><path fill="rgb(53,173,223)" stroke="rgb(53,173,223)" stroke-width="1" opacity="1" d="M 161 59 Q 164.3 57.7 163 62.5 L 165 67.5 L 164 67.5 L 163 63 Q 159.3 64.2 161 59 Z " /><path fill="rgb(53,173,223)" stroke="rgb(53,173,223)" stroke-width="1" opacity="1" d="M 165.5 69 L 167 73.5 L 166 73.5 L 165.5 69 Z " /><path fill="rgb(53,173,223)" stroke="rgb(53,173,223)" stroke-width="1" opacity="1" d="M 143 70 L 145 70.5 L 142.5 78 L 142 74.5 L 143 70 Z " /><path fill="rgb(53,173,223)" stroke="rgb(53,173,223)" stroke-width="1" opacity="1" d="M 119 77 Q 122 76 121 79 Q 118 80 119 77 Z " /><path fill="rgb(53,173,223)" stroke="rgb(53,173,223)" stroke-width="1" opacity="1" d="M 140 79 Q 143 78 142 81 Q 139 82 140 79 Z " /><path fill="rgb(53,173,223)" stroke="rgb(53,173,223)" stroke-width="1" opacity="1" d="M 168.5 79 L 169 81 Q 172 80 171 83 Q 168.3 84.1 169 81.5 L 168.5 79 Z " /><path fill="rgb(53,173,223)" stroke="rgb(53,173,223)" stroke-width="1" opacity="1" d="M 139.5 82 L 140 85.5 L 138.5 89 L 138 86.5 L 139.5 82 Z " /><path fill="rgb(53,173,223)" stroke="rgb(53,173,223)" stroke-width="1" opacity="1" d="M 148 83 Q 151.3 81.9 150 86 Q 146.7 87.1 148 83 Z " /><path fill="rgb(53,173,223)" stroke="rgb(53,173,223)" stroke-width="1" opacity="1" d="M 171 85 L 175 87 L 175 90.5 L 176 92.5 L 175 92.5 Q 175.7 89.9 173 91 L 173 87 Q 170 88 171 85 Z " /><path fill="rgb(53,173,223)" stroke="rgb(53,173,223)" stroke-width="1" opacity="1" d="M 151 92 Q 154 91 153 94 Q 150 95 151 92 Z " /><path fill="rgb(53,173,223)" stroke="rgb(53,173,223)" stroke-width="1" opacity="1" d="M 136.5 94 L 137 97.5 L 135.5 100 L 135 98.5 L 136.5 94 Z " /><path fill="rgb(53,173,223)" stroke="rgb(53,173,223)" stroke-width="1" opacity="1" d="M 176.5 94 L 179 101.5 L 178 101.5 L 176.5 94 Z " /><path fill="rgb(53,173,223)" stroke="rgb(53,173,223)" stroke-width="1" opacity="1" d="M 179.5 103 L 182 111.5 L 181 111.5 Q 178 108.1 179.5 103 Z " /><path fill="rgb(53,173,223)" stroke="rgb(53,173,223)" stroke-width="1" opacity="1" d="M 109 105 Q 112.3 103.9 111 108 Q 107.7 109.1 109 105 Z " /><path fill="rgb(53,173,223)" stroke="rgb(53,173,223)" stroke-width="1" opacity="1" d="M 182 113 Q 184.7 111.9 184 114.5 L 185 117.5 L 184 117.5 L 184 115 Q 181 116 182 113 Z " /><path fill="rgb(53,173,223)" stroke="rgb(53,173,223)" stroke-width="1" opacity="1" d="M 105 114 Q 108 113 107 116 Q 104 117 105 114 Z " /><path fill="rgb(53,173,223)" stroke="rgb(53,173,223)" stroke-width="1" opacity="1" d="M 128.5 118 L 129 120.5 L 128 120.5 L 128.5 118 Z " /><path fill="rgb(53,173,223)" stroke="rgb(53,173,223)" stroke-width="1" opacity="1" d="M 126 122 Q 129.3 120.9 128 125 Q 124.7 123.7 126 128.5 L 125 128.5 L 126 122 Z " /><path fill="rgb(53,173,223)" stroke="rgb(53,173,223)" stroke-width="1" opacity="1" d="M 186.5 123 L 188 126.5 L 187 126.5 L 186.5 123 Z " /><path fill="rgb(53,173,223)" stroke="rgb(53,173,223)" stroke-width="1" opacity="1" d="M 161 126 Q 164.3 124.9 163 129 Q 159.7 130.1 161 126 Z " /><path fill="rgb(53,173,223)" stroke="rgb(53,173,223)" stroke-width="1" opacity="1" d="M 94 173 L 349.5 173 L 350 173.5 L 350 183.5 L 348 185.5 Q 349 190 346.5 191 Q 343.9 190.3 345 193 L 342.5 193 L 342.5 195 L 335.5 198 L 336 196.5 L 335 194.5 L 337 193.5 L 336 191 L 339 191 Q 337.9 188.3 340.5 189 L 340 187.5 Q 339.2 184.9 342.5 186 L 345 184.5 L 340 183.5 L 345 183 L 346 180.5 L 336.5 180 Q 335.2 182.3 330.5 181 L 330.5 180 L 345 178.5 L 103 178 Q 101.7 181.3 106.5 180 L 106.5 181 L 99 180 Q 99.8 185 96.5 187 L 94 177.5 L 94 175.5 L 94 173 Z " /><path fill="rgb(53,173,223)" stroke="rgb(53,173,223)" stroke-width="1" opacity="1" d="M 192.5 179 L 204 179.5 L 192.5 180 L 192.5 179 Z " /><path fill="rgb(53,173,223)" stroke="rgb(53,173,223)" stroke-width="1" opacity="1" d="M 213.5 179 L 224 179.5 L 207.5 181 L 207.5 180 Q 212.3 181.3 213.5 179 Z " /><path fill="rgb(53,173,223)" stroke="rgb(53,173,223)" stroke-width="1" opacity="1" d="M 255.5 179 L 266 179.5 L 247.5 181 L 247.5 180 Q 253.8 181.8 255.5 179 Z " /><path fill="rgb(53,173,223)" stroke="rgb(53,173,223)" stroke-width="1" opacity="1" d="M 275.5 179 L 296.5 180 L 297.5 179 L 305.5 179 L 305.5 180 L 289.5 181 L 288.5 180 L 275.5 180 Q 274 182.5 268.5 181 L 268.5 180 Q 274 181.5 275.5 179 Z " /><path fill="rgb(53,173,223)" stroke="rgb(53,173,223)" stroke-width="1" opacity="1" d="M 317.5 179 L 328 179.5 L 310.5 181 L 310.5 180 Q 316 181.5 317.5 179 Z " /><path fill="rgb(53,173,223)" stroke="rgb(53,173,223)" stroke-width="1" opacity="1" d="M 226.5 180 L 234 180.5 L 226.5 181 L 226.5 180 Z " /><path fill="rgb(53,173,223)" stroke="rgb(53,173,223)" stroke-width="1" opacity="1" d="M 98.5 189 L 103 191.5 L 102.5 193 Q 104.8 193.8 104 191.5 L 105 191.5 L 105.5 196 Q 107.2 192.3 109 195.5 Q 107.9 198.8 110.5 198 L 114.5 197 L 117 198.5 L 117.5 197 Q 118.7 199.3 123.5 198 L 125 199.5 Q 124.5 202.5 131.5 201 L 133.5 202 L 134.5 201 Q 142 202.5 145.5 200 L 148 201 Q 149.5 204.8 146.5 204 L 146.5 205 Q 159.8 203.2 168.5 206 Q 169.7 203.7 174.5 205 L 175.5 206 L 187 206 L 187.5 208 Q 189.5 204 197.5 206 L 199.5 206 L 205.5 206 Q 204.9 208.8 208 208 Q 206.9 205.3 209.5 206 L 212.5 207 L 214.5 206 L 218 208 Q 216.8 204.3 222 206 Q 220.9 208.7 223.5 208 L 225.5 207 L 227 207.5 L 227 206 L 232 206 Q 230.9 208.7 233.5 208 L 236.5 207 Q 238 209.5 239.5 206 L 245 206.5 L 243 207.5 L 246 208 Q 244.2 203.1 250.5 205 L 261.5 207 L 265.5 205 Q 266.8 207.2 271.5 206 L 273.5 205 L 276.5 207 L 281.5 205 L 284.5 206 L 286.5 205 L 297.5 205 L 301 202.5 Q 300.2 199.9 303.5 201 L 305.5 204 L 306 202 Q 310.3 200.1 318 201 L 316.5 204 L 300.5 205 L 292.5 207 L 256.5 209 L 254.5 209 L 243.5 209 L 242.5 210 L 201.5 210 L 200.5 209 L 180.5 209 L 179.5 208 L 158.5 208 L 153.5 206 L 151.5 207 L 150.5 206 L 125.5 204 L 123.5 202 L 115 201 Q 116.4 197 109.5 199 L 105.5 198 L 101 194.5 L 99 191.5 L 98.5 189 Z " /><path fill="rgb(53,173,223)" stroke="rgb(53,173,223)" stroke-width="1" opacity="1" d="M 324 197 L 329.5 199 L 333.5 198 L 333.5 199 Q 328.5 198 329.5 201 L 325.5 201 Q 324.2 203.2 319.5 202 L 319.5 201 Q 323.3 201.8 324 199.5 L 324 197 Z " /><path fill="rgb(53,173,223)" stroke="rgb(53,173,223)" stroke-width="1" opacity="1" d="M 208.5 214 L 237.5 214 L 239 215.5 L 239 237.5 L 238 238.5 L 335.5 239 L 339 241 Q 337.8 244 341.5 243 L 348 247.5 L 349.5 250 L 352 251.5 L 352 256.5 L 355 263.5 L 356 283.5 L 360 300.5 L 360 302.5 Q 358.8 312.8 362 318.5 L 361 320.5 Q 363.7 322.8 363 328.5 L 362.5 330 Q 365.5 329.1 364 333.5 L 365 338 L 362.5 337 L 362 338.5 L 363 340.5 L 362.5 342 L 365.5 341 L 367 342.5 L 367 351.5 L 368 352.5 L 360.5 353 L 360.5 352 Q 367.4 354 366 350 L 361 346.5 L 361.5 345 L 360 344.5 L 360 329.5 L 361 325.5 L 360 324.5 L 360 318 Q 357.3 319.1 358 316.5 L 357 316.5 L 356.5 319 L 356 316.5 L 357.5 314 L 356 314 L 356 310 Q 358.7 311.1 358 308.5 L 356.5 306 Q 359.5 306.7 358 303 Q 355.3 304.1 356 301.5 L 355 298 L 358 297.5 L 356 297 L 356 289.5 L 350 275.5 L 349 256.5 L 348 254.5 L 349 252 Q 346.3 250.9 347 253.5 L 346 253.5 L 343.5 249 L 340.5 249 L 332.5 245 L 330.5 248 L 330 245 L 241.5 245 L 239.5 244 L 236 246 L 236.5 242 L 329.5 242 L 329.5 241 L 236 240.5 L 237 238.5 L 235 235.5 L 235 221.5 L 233.5 220 L 215.5 220 L 214 221.5 Q 214.7 224.1 212 223 L 213 217 L 211 217.5 L 211 231.5 L 213 238.5 L 210 244 Q 205.2 246.1 195.5 245 L 194.5 244 L 166.5 244 L 165.5 245 L 155.5 245 L 154.5 244 L 145.5 244 L 144.5 245 L 134.5 245 L 133.5 244 L 125.5 244 L 118 246 Q 119.3 243 115.5 244 L 115.5 245 L 117 245.5 L 110.5 246 L 109 247.5 L 108.5 249 L 105 248 L 104.5 251 L 101 250 Q 102.1 246.7 98 248 L 99 250.5 L 98.5 252 Q 101.1 251.3 100 254 Q 97.3 255.1 98 252.5 L 97 252.5 L 98 255.5 L 97.5 257 Q 100.1 256.2 99 259.5 L 96 270 L 94 270.5 L 95 273 Q 90.5 271.5 92 276 Q 95 274.8 94 278.5 L 90.5 287 L 89 287.5 L 91 288 Q 92.6 292.9 87 291 L 87 280.5 L 90 274.5 L 91 262.5 L 93 256.5 L 92 254.5 Q 94.8 253.4 94 250 L 96 250 L 96 248 Q 98.7 249.1 98 246.5 L 99 244 L 107.5 239 L 207 239 L 207 215.5 L 208.5 214 Z M 216 217 L 214 219 L 216 219 L 216 217 Z " /><path fill="rgb(53,173,223)" stroke="rgb(53,173,223)" stroke-width="1" opacity="1" d="M 104.5 257 L 105.5 259 L 104.5 257 Z " /><path fill="rgb(53,173,223)" stroke="rgb(53,173,223)" stroke-width="1" opacity="1" d="M 211.5 271 L 231.5 271 L 232.5 272 Q 243.3 270.3 249.5 273 L 251.5 272 L 251.5 273 Q 248.9 272.3 250 275 L 255 274 Q 253.6 278 260.5 276 L 262.5 276 L 264.5 277 L 265.5 276 L 274 276 L 274 285.5 L 275.5 286 L 279.5 287 Q 280.8 284.8 282 287.5 L 281.5 289 L 286.5 291 L 289.5 290 Q 292.1 289.2 291 292.5 L 290 295.5 L 292 296.5 L 291 294.5 L 296 294 Q 297.1 296.7 294.5 296 L 294.5 297 L 297.5 299 L 299.5 298 L 299 299.5 Q 298.3 302.1 301 301 Q 299.5 296.5 304 298 Q 305.7 304.1 302.5 306 Q 299.9 306.8 301 303.5 L 300 303.5 L 299.5 309 L 297.5 306 L 295 304.5 Q 295.8 302.3 293.5 303 L 292 299 Q 288.3 300.5 289 297.5 L 286 296 Q 287.1 293.3 284.5 294 L 274 287.5 Q 274.8 285.3 272.5 286 Q 270.6 282.4 266 283 Q 267.3 280 263.5 281 L 260 278.5 L 259.5 277 L 256.5 278 L 254.5 276 Q 246.4 277.6 243.5 274 L 241.5 275 L 237.5 273 L 235.5 273 L 207.5 273 L 206.5 274 Q 205 271.5 203.5 275 L 189 276 Q 190.1 278.7 187.5 278 L 171 286 Q 172.1 288.7 169.5 288 L 159 294 L 159 296 Q 155.3 294.5 156 297.5 L 153 302 L 150 303.5 L 148.5 306 Q 146.3 305.3 147 307.5 L 140.5 316 Q 138.3 315.3 139 317.5 L 137 321.5 L 135 325.5 L 135 327.5 L 132 342.5 L 130.5 344 L 130 341 L 126 340.5 L 128 339.5 L 125 337.5 L 125 334.5 L 128 329.5 L 130 321 Q 135.6 322.9 134 318 L 132 317.5 L 133 314 L 138 312.5 L 137.5 311 L 139.5 310 L 143 312 L 144 308 L 146 307.5 L 144 307 L 143 303.5 L 149 299.5 Q 147.1 294.1 150.5 295 L 152.5 296 L 152.5 294 L 155 293.5 L 154 291.5 L 157.5 286 Q 162.5 287 161.5 284 L 165.5 284 L 166.5 287 L 170 285.5 L 169 283 Q 172 284 171 281 L 173.5 281 L 175 281.5 Q 174.1 278.1 179.5 280 L 179.5 279 L 178 278.5 L 179 276 L 188.5 276 L 189 272 L 193.5 272 L 193.5 273 L 192 273.5 Q 193.5 276.5 195 273.5 Q 194.2 270.5 198 272 L 198.5 274 L 199 272 L 204.5 273 L 211.5 271 Z " /><path fill="rgb(53,173,223)" stroke="rgb(53,173,223)" stroke-width="1" opacity="1" d="M 284.5 285 L 285 288 L 283 287.5 L 284.5 285 Z " /><path fill="rgb(53,173,223)" stroke="rgb(53,173,223)" stroke-width="1" opacity="1" d="M 86.5 292 L 90 294.5 L 90 301 Q 85.9 299.3 87 303.5 Q 89.8 305.3 88 311.5 L 87 315 L 83.5 314 L 82 325.5 L 83 329 L 80 329 L 80 321.5 L 81 318.5 L 80 316 Q 83 317.3 82 313.5 L 84 305.5 L 83 303.5 L 85 301.5 L 85 293.5 L 86.5 292 Z " /><path fill="rgb(53,173,223)" stroke="rgb(53,173,223)" stroke-width="1" opacity="1" d="M 221.5 307 L 224 316.5 L 224 329.5 L 226 331.5 L 226 343.5 L 228 348.5 L 227.5 350 Q 233 349 234 352.5 L 236 355.5 L 238 361.5 L 237 364.5 L 236 369 Q 233.3 367.9 234 370.5 Q 229.4 376.9 216.5 375 L 211 371 Q 212.1 368.3 209.5 369 L 207 364.5 L 208 363.5 L 208 355.5 L 209.5 354 Q 211.8 354.8 211 352.5 L 212 350 L 216 350 L 216 348.5 L 217 347.5 L 217 331.5 L 219 329.5 L 220 314.5 L 220 312.5 Q 219 308 221.5 307 Z " /><path fill="rgb(53,173,223)" stroke="rgb(53,173,223)" stroke-width="1" opacity="1" d="M 304.5 308 L 305 312 L 303 312.5 L 309 313 L 309 318 Q 311.7 316.9 311 319.5 Q 308.8 320.8 310 325.5 L 311 325.5 L 311.5 323 L 313 330 L 316 331.5 L 317 333.5 L 317 344.5 L 318 345.5 Q 315.5 347 319 348.5 L 318.5 352 L 317 351.5 L 317 354.5 L 320 360.5 L 320 366.5 L 316 382 L 314 382.5 L 314 384.5 L 312 391.5 L 309.5 394 Q 306.9 393.2 308 396.5 L 298 409.5 L 296 415.5 L 291.5 422 L 289 420.5 L 290 422.5 L 284 425 L 283.5 427 L 274 427 L 274 432 L 272.5 432 L 269 433 L 267.5 436 L 265.5 436 L 261.5 440 Q 260.3 437.7 259 440.5 L 259 442 L 255 442 Q 256.1 439.3 253.5 440 L 254 441.5 L 255 443.5 L 240.5 444 L 235.5 446 L 211 446 Q 213.1 440.8 208.5 442 L 206.5 441 Q 205.2 443.3 200.5 442 L 198.5 442 L 193.5 443 L 190.5 441 L 189 441.5 L 190 438.5 L 186.5 436 L 182.5 438 Q 180.3 437.3 181 439.5 L 179 438.5 L 180 436 L 175 436 L 175 432.5 L 173.5 433 L 170.5 432 Q 169.3 434.3 168 431.5 L 171 429.5 L 167.5 426 L 165.5 428 L 162.5 430 L 160.5 427 Q 161.7 429.3 163 426.5 Q 164.1 423.2 161.5 424 L 158 426 L 157.5 424 L 157 427 Q 151.4 429.2 153 423.5 L 154.5 424 Q 156.8 424.8 156 422.5 L 153 421.5 L 154 418 Q 150.2 416.5 151 419.5 L 149 418.5 L 151 418 Q 152.1 415.3 149.5 416 L 148.5 414 L 150 414.5 L 148.5 411 Q 144.8 412.3 146 408.5 Q 144.8 405.3 141 406 L 140.5 404 L 139.5 406 L 139 404 Q 136.3 405.1 137 402.5 Q 139.8 401.8 139 397.5 L 137.5 398 L 130 398 L 130 387.5 L 133 386.5 Q 133.9 383.1 128.5 385 L 130 382.5 L 129 375.5 L 130 374.5 L 130 362.5 L 129 361.5 L 129 350.5 L 130.5 345 L 131 349.5 L 130 350.5 L 130 361.5 L 135 386.5 L 134.5 388 Q 136.8 387.3 136 389.5 L 137 393.5 L 140.5 397 Q 142.8 396.3 142 398.5 L 143 403 L 146 404.5 L 146 407 L 149 407 L 149 409 L 153 411 L 153 414 Q 155.7 412.9 155 415.5 Q 156.2 418.8 160 418 Q 158.9 420.7 161.5 420 L 165.5 424 Q 174.5 427 180.5 433 L 184.5 433 L 192.5 438 L 198.5 438 L 209.5 441 L 235.5 441 L 241.5 439 L 247.5 439 L 256.5 435 L 260 435 Q 258.6 431.3 264.5 433 L 267.5 430 L 268.5 431 Q 270.8 431.8 270 429.5 L 280 423.5 L 282.5 420 L 292 414 L 294.5 409 L 297.5 407 L 300 406 Q 298.8 401.4 301.5 400 Q 304.1 400.8 303 397.5 L 308.5 387 L 311 385.5 L 310 383.5 L 315 370.5 L 315 367.5 L 315 365.5 Q 317.3 360.8 316 352.5 L 316 350.5 Q 317 345.5 314 346.5 L 314 340.5 L 308 323 Q 305.3 324.1 306 321.5 L 305 316 Q 302.3 317.1 303 314.5 L 300 310.5 Q 302.2 312.2 304.5 308 Z " /><path fill="rgb(53,173,223)" stroke="rgb(53,173,223)" stroke-width="1" opacity="1" d="M 79 331 Q 85 329 83 335 Q 79.2 333.5 80 336.5 L 83 338 L 84 343.5 L 83 346 L 79 348.5 L 81 354.5 L 81 360.5 L 78 362.5 Q 81.5 364 79 365.5 Q 81 374 76.5 376 L 75.5 374 L 74 382 L 78 382 L 78 380.5 L 79 380.5 L 77.5 383 Q 72.7 381.3 74 385.5 L 73 387.5 L 73 389.5 L 74 391.5 L 73 393.5 L 74 398 L 72 398.5 L 75 403.5 Q 68.5 412.6 67 426 Q 71.5 424.3 70 429.5 L 69 430.5 L 68 443.5 L 66 447.5 L 66 452.5 L 64 456 Q 67.8 454.5 67 457.5 L 68 460 Q 71 458.8 70 462.5 L 73 467 Q 78.3 465.7 77.5 469 L 369.5 469 L 371.5 469 L 376.5 471 L 377 468.5 L 376 466.5 L 379 465.5 L 378.5 464 Q 384.8 466.2 383 460.5 L 382 456.5 L 383 453.5 L 383.5 452 L 386 454.5 L 386 464 L 383 465.5 L 379 472 Q 373.9 470.8 372.5 474 L 74.5 474 Q 73.3 471.7 68.5 473 L 62 469 L 61 460 L 59 459.5 L 61 453.5 L 62 435.5 L 64 432.5 L 64 423.5 L 67 418.5 L 66 416.5 L 68 410.5 L 68 401.5 L 69 400.5 L 68 396.5 L 71 394.5 L 70 390.5 L 76 368.5 Q 73.5 367 75 361.5 L 76 357.5 L 76 355.5 L 77 353.5 L 77 351.5 L 79 340.5 L 79 331 Z " /><path fill="rgb(53,173,223)" stroke="rgb(53,173,223)" stroke-width="1" opacity="1" d="M 367.5 354 L 369 360.5 L 368 362.5 L 371 365.5 L 373 385.5 L 371.5 385 L 368 384 L 367 381.5 L 368 377.5 L 367.5 375 Q 365.3 375.8 366 373.5 L 368 365.5 L 366 360.5 L 367.5 354 Z " /><path fill="rgb(53,173,223)" stroke="rgb(53,173,223)" stroke-width="1" opacity="1" d="M 372.5 387 L 375 398.5 L 374 401.5 L 377 405.5 Q 375.2 411.7 378 413.5 L 378 415.5 Q 380.5 419 379 426.5 L 381 432.5 L 381 434.5 L 382 440 L 378 439 L 379 428 L 376 426.5 Q 378.5 425 377 419.5 L 376 417 L 373 415.5 Q 371.8 410.8 374 409.5 L 371 407.5 L 372 405.5 L 371 401.5 L 371 399.5 L 371 388.5 L 372.5 387 Z " /><path fill="rgb(53,173,223)" stroke="rgb(53,173,223)" stroke-width="1" opacity="1" d="M 315.5 392 L 316 394 L 314 393.5 L 315.5 392 Z " /><path fill="rgb(53,173,223)" stroke="rgb(53,173,223)" stroke-width="1" opacity="1" d="M 313.5 396 Q 315.8 395.3 315 397.5 Q 313.5 400.5 312 397.5 L 313.5 396 Z " /><path fill="rgb(53,173,223)" stroke="rgb(53,173,223)" stroke-width="1" opacity="1" d="M 310.5 399 L 311 400.5 L 309.5 403 L 309 400.5 L 310.5 399 Z " /><path fill="rgb(53,173,223)" stroke="rgb(53,173,223)" stroke-width="1" opacity="1" d="M 303 408 L 305 408.5 L 302.5 413 Q 300.3 413.8 301 411.5 L 303 408 Z " /><path fill="rgb(53,173,223)" stroke="rgb(53,173,223)" stroke-width="1" opacity="1" d="M 75.5 410 L 76 411.5 L 74 412.5 L 75.5 410 Z " /><path fill="rgb(53,173,223)" stroke="rgb(53,173,223)" stroke-width="1" opacity="1" d="M 292.5 427 L 291.5 429 L 292.5 427 Z " /><path fill="rgb(53,173,223)" stroke="rgb(53,173,223)" stroke-width="1" opacity="1" d="M 281.5 435 L 283 435.5 L 280.5 437 L 281.5 435 Z " /><path fill="rgb(53,173,223)" stroke="rgb(53,173,223)" stroke-width="1" opacity="1" d="M 381.5 442 Q 385.3 444.5 384 451 L 381 451 L 381.5 442 Z " /><path fill="rgb(255,127,39)" stroke="rgb(255,127,39)" stroke-width="1" opacity="1" d="M 132.5 49 L 157.5 49 L 158 52.5 L 161 58.5 L 161 63 Q 164 61.8 163 65.5 L 169 83 L 171 83 L 171 87 L 173 87 L 173 91 Q 175.7 89.9 175 92.5 L 182 115 Q 185 113.8 184 117.5 L 188 127.5 L 188 131 L 164.5 131 L 163 129.5 L 163 126 Q 160 127.3 161 123.5 L 159 118 L 128.5 118 L 128 122 L 126 122 L 126 124.5 L 123.5 131 L 101.5 131 L 101 129.5 L 105 119.5 L 105 116 Q 108 117.3 107 113.5 L 109 108 Q 112.7 109.3 111 103.5 L 114 97.5 L 119 79 Q 122 80.3 121 76.5 L 126 59 Q 129 60.3 128 56.5 L 129 53 Q 132 54.3 131 50.5 L 132.5 49 Z M 143 70 L 142 75 Q 144 80 140 79 L 135 100 L 155 100 L 153 96 Q 154 91 151 92 L 150 88 Q 152 82 148 83 L 145 72 Q 146 69 143 70 Z " /><path fill="rgb(255,127,39)" stroke="rgb(255,127,39)" stroke-width="1" opacity="1" d="M 199 49 L 223 49 L 223 111 L 263 111 L 263 131 L 199 131 L 199 49 Z " /><path fill="rgb(255,127,39)" stroke="rgb(255,127,39)" stroke-width="1" opacity="1" d="M 276 49 L 301 49 L 301 111 L 340 111 L 340 131 L 276 131 L 276 49 Z " /><path fill="rgb(255,127,39)" stroke="rgb(255,127,39)" stroke-width="1" opacity="1" d="M 103 178 L 345 178.5 L 336 179.5 L 346 180.5 L 345 183 L 339 183.5 L 345 184.5 L 340 186 L 341 188.5 L 339 189 L 339 191 Q 335.3 189.5 336 192.5 L 336.5 194 L 335 194.5 L 336 196.5 L 329.5 199 L 324 197 L 322.5 201 L 318.5 202 L 317.5 201 L 309.5 201 L 306 202 L 305.5 204 L 303.5 201 Q 300.2 199.9 301 202.5 L 297.5 205 L 286.5 205 L 284.5 206 L 281.5 205 L 274.5 206 L 272.5 205 Q 271.3 207.2 266.5 206 L 264.5 205 L 261.5 207 L 260.5 206 L 251.5 206 L 246 205 Q 247.7 209.1 243.5 208 L 243.5 207 L 245 206.5 L 239.5 206 Q 238 209.5 236.5 207 L 232 208 L 232 206 L 227 206 L 226.5 208 L 224.5 207 L 222 208 Q 223.2 204.3 218 206 Q 219.1 208.7 216.5 208 L 213.5 206 L 210.5 207 L 208 206 Q 209 209 206 208 Q 207.1 204.5 199.5 206 L 197.5 206 Q 189.5 204 187.5 208 L 187 206 L 169.5 205 L 165.5 206 L 164.5 205 L 146 204.5 L 148 204 Q 149.5 200.3 146.5 201 L 144.5 200 L 143.5 201 Q 136 199.5 132.5 202 L 131.5 201 L 125 201 L 123.5 198 Q 118.7 199.3 117.5 197 L 116.5 199 Q 115.8 196.3 111.5 197 L 109 198 L 107.5 194 L 105 195.5 L 104.5 191 L 104 193 L 102 192.5 Q 104.3 191.3 101.5 190 L 97 187.5 Q 100 185.3 99 180 Q 104.2 181.7 103 178 Z M 193 179 L 193 180 L 204 180 L 193 179 Z M 214 179 L 214 180 L 224 180 L 214 179 Z M 256 179 L 256 180 L 266 180 L 256 179 Z M 276 179 L 276 180 L 289 180 L 276 179 Z M 298 179 L 298 180 L 306 180 L 298 179 Z M 318 179 L 318 180 L 328 180 L 318 179 Z M 104 180 L 104 181 L 108 181 L 104 180 Z M 208 180 L 208 181 L 213 181 L 208 180 Z M 227 180 L 227 181 L 234 181 L 227 180 Z M 248 180 L 248 181 L 255 181 L 248 180 Z M 269 180 L 269 181 L 275 181 L 269 180 Z M 290 180 L 290 181 L 297 181 L 290 180 Z M 311 180 L 311 181 L 317 181 L 311 180 Z M 331 180 L 331 181 L 336 181 L 331 180 Z M 105 182 L 106 185 L 107 183 L 105 182 Z M 114 193 L 113 196 L 114 196 L 114 193 Z " /><path fill="rgb(255,127,39)" stroke="rgb(255,127,39)" stroke-width="1" opacity="1" d="M 211 217 Q 213.7 215.9 213 218.5 L 212 223.5 L 216.5 220 L 232.5 220 L 235 221 L 235 235.5 L 237 239.5 L 236.5 241 L 330 241.5 L 236 242 L 236 246 L 237.5 246 L 240.5 244 L 241.5 245 L 330 245 Q 328.7 249.1 332 248 L 333.5 245 L 339.5 249 Q 344 248 345 250.5 L 346.5 254 L 347 252 Q 349.7 250.9 349 253.5 L 348 255.5 L 349 256.5 L 350 275.5 L 354 285.5 L 353.5 287 Q 355.8 286.3 355 288.5 L 356 289.5 L 356 297 L 358 297.5 L 355 298 L 356 303 Q 359.3 301.9 358 306 L 356 306.5 L 358 310 Q 354.3 308.8 356 314 L 358 314.5 L 358 316.5 L 358 318 L 360 318.5 L 360 324.5 L 361 328.5 L 360 329.5 L 360 345 L 362 345.5 L 361 346.5 L 364.5 350 Q 367.1 349.3 366 352 L 360 352.5 L 367 353 L 366 361.5 L 368 366.5 L 366 375 L 368 375.5 L 368 377.5 L 367 381.5 L 368 384 L 373 386.5 L 371 388.5 L 371 399.5 L 371 401.5 L 372 405.5 L 371 407.5 L 374 409.5 Q 371.8 410.8 373 415.5 L 376 417 Q 377.8 419.4 377 425.5 Q 374.8 426.7 377.5 428 L 379 428.5 L 379 435.5 L 378 439 L 381 440.5 L 381 450.5 L 383.5 451 L 383 452.5 L 382 454.5 L 382 456.5 L 383 464 L 378 464.5 L 378.5 466 L 376 466.5 L 377 468.5 L 376.5 471 L 371.5 469 L 369.5 469 L 77.5 469 L 77 467 L 74.5 467 L 73 464 Q 70.3 465.1 71 462.5 L 70 460 Q 67.3 461.1 68 458.5 L 67 456 Q 63.3 457.5 64 454.5 L 66 452.5 Q 65.3 446.8 68 444.5 L 69 430.5 L 71 423.5 L 70 423.5 L 68.5 426 L 67 423.5 L 75 403.5 L 72 398.5 L 74 398 L 73 392.5 L 73 390.5 L 74 388.5 L 73 386.5 L 74 383 L 78 382.5 L 74 382 L 75.5 374 L 76.5 376 L 80 373.5 Q 77.8 372.2 79 367.5 L 80 364.5 L 78.5 362 L 81 361.5 L 81 354.5 L 79 348.5 L 84 344.5 L 83 338 L 80 336.5 Q 79.2 333.5 83 335 L 83 331 Q 78.9 332.3 80 329 Q 84.1 330.7 83 326.5 L 82 323.5 L 83 322.5 L 83.5 314 L 87 315 Q 86.3 311.6 89 310.5 L 87 301 L 90 301 L 90 294.5 L 87 293 Q 85.8 289.3 91 291 L 91 288 L 89 287.5 L 92 287 L 94 276 Q 90.7 277.1 92 273 Q 95.8 274.5 95 271.5 L 94.5 270 Q 96.8 270.8 96 268.5 L 98 265.5 L 99 257 L 97 256.5 L 97 254.5 L 99 250.5 L 98 248 L 101 248 Q 99.8 251 103.5 250 L 105 250.5 Q 103.8 246.8 107.5 248 L 110 249 L 111.5 246 L 117 245.5 L 115 244.5 L 118 244 Q 116.7 247.3 121.5 246 Q 125.2 242.7 133.5 244 L 134.5 245 L 144.5 245 L 145.5 244 L 154.5 244 L 155.5 245 L 165.5 245 L 166.5 244 L 194.5 244 L 195.5 245 L 206.5 245 L 211 242.5 L 214 237.5 L 212 237 L 211 231.5 L 211 217 Z M 98 252 Q 97 255 100 254 Q 101 251 98 252 Z M 105 257 L 106 259 Q 107 256 105 257 Z M 212 271 L 205 273 L 199 272 L 199 274 L 198 272 Q 194 270 195 274 Q 194 277 192 274 L 194 273 L 194 272 L 189 272 L 189 276 L 179 276 L 178 279 L 180 279 L 180 280 Q 174 278 175 282 L 174 281 L 171 281 Q 172 284 169 283 L 170 286 L 167 287 L 166 284 L 162 284 Q 163 287 158 286 L 154 292 L 155 294 L 153 294 L 153 296 L 151 295 Q 147 294 149 300 L 143 304 L 144 307 L 146 308 L 144 308 L 143 312 L 140 310 L 138 311 L 138 313 L 133 314 L 132 318 L 134 318 Q 136 323 131 321 L 124 338 L 128 340 L 126 341 L 130 341 L 130 350 L 129 351 L 129 362 L 130 363 L 130 375 L 129 376 L 130 383 L 129 385 Q 134 383 133 387 L 130 388 L 130 398 L 138 398 L 139 398 Q 140 402 137 403 Q 136 405 139 404 L 140 406 L 141 404 L 141 406 Q 145 405 146 409 Q 145 412 149 411 L 150 415 L 150 416 Q 152 415 151 418 L 154 418 L 153 422 L 156 423 Q 157 425 155 424 L 153 424 Q 151 429 157 427 L 158 424 L 158 426 L 162 424 Q 164 423 163 427 Q 159 428 163 430 L 166 428 L 168 426 L 171 430 L 168 432 Q 169 434 171 432 L 174 433 L 175 433 L 175 436 L 180 436 L 179 439 L 181 440 Q 180 437 183 438 L 187 436 L 190 439 L 189 442 L 191 441 L 194 443 L 199 442 L 201 442 Q 205 443 207 441 L 209 442 Q 213 441 211 446 L 237 446 L 242 444 L 255 444 L 254 442 L 254 440 Q 256 439 255 442 L 259 442 L 261 439 L 262 441 L 263 439 Q 263 436 268 436 L 269 433 L 273 432 L 274 432 L 274 427 L 284 427 L 284 425 L 290 423 L 289 421 L 292 422 L 293 422 L 293 418 L 295 418 L 299 409 L 308 397 Q 307 393 310 394 L 315 385 L 314 383 L 316 382 L 320 368 L 320 360 Q 316 358 317 352 L 319 352 L 319 349 Q 315 347 318 346 Q 315 342 317 334 L 316 333 Q 317 329 315 330 L 312 323 L 311 326 L 310 326 Q 309 321 311 320 Q 312 317 309 318 L 309 313 L 304 313 L 304 312 Q 307 313 305 309 L 302 311 Q 298 309 300 304 L 301 304 Q 300 307 303 306 Q 306 304 304 298 Q 300 297 301 301 Q 298 302 299 300 L 300 298 L 298 299 L 295 297 L 295 296 Q 297 297 296 294 L 291 295 L 292 297 L 290 296 L 291 293 Q 292 289 290 290 L 287 291 L 282 289 L 282 288 Q 281 285 280 287 L 276 286 L 274 286 L 274 276 L 266 276 L 265 277 L 263 276 L 261 276 Q 254 278 255 274 L 253 275 Q 249 276 250 273 Q 244 271 233 272 L 232 271 L 212 271 Z M 285 285 L 283 288 L 285 288 L 285 285 Z M 357 316 L 356 319 L 357 319 L 357 316 Z M 78 380 L 78 382 L 80 381 L 78 380 Z M 314 392 Q 313 395 316 394 Q 317 391 314 392 Z M 314 396 L 312 398 Q 314 401 315 398 Q 316 395 314 396 Z M 309 399 L 310 403 L 311 401 Q 312 398 309 399 Z M 78 404 L 72 417 L 73 419 L 78 408 L 78 404 Z M 304 407 L 301 411 Q 300 414 303 413 L 306 409 L 304 407 Z M 150 418 L 151 420 Q 152 417 150 418 Z M 72 420 L 71 423 L 72 423 L 72 420 Z M 295 425 L 294 427 L 296 426 L 295 425 Z M 292 427 L 290 429 L 293 429 Q 294 426 292 427 Z M 281 435 L 279 437 L 280 438 L 284 436 L 281 435 Z " /><path fill="rgb(255,127,39)" stroke="rgb(255,127,39)" stroke-width="1" opacity="1" d="M 362.5 337 L 365 340.5 L 362.5 342 L 363 340.5 L 362.5 337 Z " /><path fill="rgb(191,233,245)" stroke="rgb(191,233,245)" stroke-width="1" opacity="1" d="M 223 49 L 225 49.5 L 225 111 L 223 110.5 L 223 49 Z " /><path fill="rgb(191,233,245)" stroke="rgb(191,233,245)" stroke-width="1" opacity="1" d="M 301.5 49 L 302 110.5 L 301 110.5 L 301.5 49 Z " /><path fill="rgb(191,233,245)" stroke="rgb(191,233,245)" stroke-width="1" opacity="1" d="M 129 50 Q 132 49 131 52 Q 128 53 129 50 Z " /><path fill="rgb(191,233,245)" stroke="rgb(191,233,245)" stroke-width="1" opacity="1" d="M 161 57 Q 164 56 163 59 Q 160 60 161 57 Z " /><path fill="rgb(191,233,245)" stroke="rgb(191,233,245)" stroke-width="1" opacity="1" d="M 165.5 67 L 167 70.5 L 166 70.5 L 165.5 67 Z " /><path fill="rgb(191,233,245)" stroke="rgb(191,233,245)" stroke-width="1" opacity="1" d="M 121.5 71 L 122 73.5 L 121 73.5 L 121.5 71 Z " /><path fill="rgb(191,233,245)" stroke="rgb(191,233,245)" stroke-width="1" opacity="1" d="M 167.5 72 L 168 75.5 L 167 75.5 L 167.5 72 Z " /><path fill="rgb(191,233,245)" stroke="rgb(191,233,245)" stroke-width="1" opacity="1" d="M 143.5 74 L 144 76.5 L 143 76.5 L 143.5 74 Z " /><path fill="rgb(191,233,245)" stroke="rgb(191,233,245)" stroke-width="1" opacity="1" d="M 145.5 74 L 146 76.5 L 145 76.5 L 145.5 74 Z " /><path fill="rgb(191,233,245)" stroke="rgb(191,233,245)" stroke-width="1" opacity="1" d="M 168.5 77 L 169 79 Q 172 78 171 81 Q 168.3 82.1 169 79.5 L 168.5 77 Z " /><path fill="rgb(191,233,245)" stroke="rgb(191,233,245)" stroke-width="1" opacity="1" d="M 140 81 Q 143.7 79.8 142 85 Q 138.3 86.2 140 81 Z " /><path fill="rgb(191,233,245)" stroke="rgb(191,233,245)" stroke-width="1" opacity="1" d="M 171 82 Q 174.3 80.9 173 85 Q 169.7 86.1 171 82 Z " /><path fill="rgb(191,233,245)" stroke="rgb(191,233,245)" stroke-width="1" opacity="1" d="M 148 86 Q 151 85 150 88 Q 147 89 148 86 Z " /><path fill="rgb(191,233,245)" stroke="rgb(191,233,245)" stroke-width="1" opacity="1" d="M 175.5 88 L 176 90.5 L 175 90.5 L 175.5 88 Z " /><path fill="rgb(191,233,245)" stroke="rgb(191,233,245)" stroke-width="1" opacity="1" d="M 138.5 89 L 139 91.5 L 138 91.5 L 138.5 89 Z " /><path fill="rgb(191,233,245)" stroke="rgb(191,233,245)" stroke-width="1" opacity="1" d="M 150.5 89 L 151 91.5 L 150 91.5 L 150.5 89 Z " /><path fill="rgb(191,233,245)" stroke="rgb(191,233,245)" stroke-width="1" opacity="1" d="M 137.5 93 L 138 96.5 L 137 96.5 L 137.5 93 Z " /><path fill="rgb(191,233,245)" stroke="rgb(191,233,245)" stroke-width="1" opacity="1" d="M 151 94 Q 154 93 153 96 Q 150 97 151 94 Z " /><path fill="rgb(191,233,245)" stroke="rgb(191,233,245)" stroke-width="1" opacity="1" d="M 109 103 Q 112 102 111 105 Q 108 106 109 103 Z " /><path fill="rgb(191,233,245)" stroke="rgb(191,233,245)" stroke-width="1" opacity="1" d="M 182 111 Q 185 110 184 113 Q 181 114 182 111 Z " /><path fill="rgb(191,233,245)" stroke="rgb(191,233,245)" stroke-width="1" opacity="1" d="M 263.5 111 L 264 130.5 L 263 130.5 L 263.5 111 Z " /><path fill="rgb(191,233,245)" stroke="rgb(191,233,245)" stroke-width="1" opacity="1" d="M 340.5 111 L 341 130.5 L 340 130.5 L 340.5 111 Z " /><path fill="rgb(191,233,245)" stroke="rgb(191,233,245)" stroke-width="1" opacity="1" d="M 185.5 116 L 186 119.5 L 185 119.5 L 185.5 116 Z " /><path fill="rgb(191,233,245)" stroke="rgb(191,233,245)" stroke-width="1" opacity="1" d="M 129 118 Q 132 117 131 120 Q 128 121 129 118 Z " /><path fill="rgb(191,233,245)" stroke="rgb(191,233,245)" stroke-width="1" opacity="1" d="M 128.5 121 L 129 123.5 L 128 123.5 L 128.5 121 Z " /><path fill="rgb(191,233,245)" stroke="rgb(191,233,245)" stroke-width="1" opacity="1" d="M 186.5 121 L 188 124.5 L 187 124.5 L 186.5 121 Z " /><path fill="rgb(191,233,245)" stroke="rgb(191,233,245)" stroke-width="1" opacity="1" d="M 126 125 Q 129 124 128 127 Q 125 128 126 125 Z " /><path fill="rgb(191,233,245)" stroke="rgb(191,233,245)" stroke-width="1" opacity="1" d="M 188.5 126 L 189 128.5 L 188 128.5 L 188.5 126 Z " /><path fill="rgb(191,233,245)" stroke="rgb(191,233,245)" stroke-width="1" opacity="1" d="M 99 129 Q 102 128 101 131 Q 98 132 99 129 Z " /><path fill="rgb(191,233,245)" stroke="rgb(191,233,245)" stroke-width="1" opacity="1" d="M 94.5 172 L 349.5 172 L 352 173 Q 353.6 183.3 348.5 188 L 348 185.5 L 350 183.5 L 350 173 L 94.5 173 L 94.5 172 Z " /><path fill="rgb(191,233,245)" stroke="rgb(191,233,245)" stroke-width="1" opacity="1" d="M 93.5 174 L 95 176.5 L 94 180.5 L 99 193 Q 101.7 191.9 101 194.5 Q 103.1 198.4 109 198.5 L 105.5 199 L 102 198 Q 103.1 195.3 100.5 196 L 98 191 Q 94.7 192.3 96 187.5 Q 91.4 183.1 93.5 174 Z " /><path fill="rgb(191,233,245)" stroke="rgb(191,233,245)" stroke-width="1" opacity="1" d="M 347.5 190 L 348 191.5 L 345 193 Q 346.1 195.7 343.5 195 L 342 198 L 334.5 199 L 334.5 198 L 337.5 198 L 343 194.5 L 342.5 193 L 345 193 Q 343.9 190.3 346.5 191 L 347.5 190 Z " /><path fill="rgb(191,233,245)" stroke="rgb(191,233,245)" stroke-width="1" opacity="1" d="M 110.5 199 L 114.5 199 L 115 201 L 117.5 201 L 117.5 202 L 111.5 201 L 110.5 199 Z " /><path fill="rgb(191,233,245)" stroke="rgb(191,233,245)" stroke-width="1" opacity="1" d="M 330 199 L 333 199.5 Q 331.3 202.8 325.5 202 L 325.5 201 Q 331.4 202.7 330 199 Z " /><path fill="rgb(191,233,245)" stroke="rgb(191,233,245)" stroke-width="1" opacity="1" d="M 119.5 202 Q 124 201 125 203.5 L 122.5 204 L 119.5 203 L 119.5 202 Z " /><path fill="rgb(191,233,245)" stroke="rgb(191,233,245)" stroke-width="1" opacity="1" d="M 318.5 202 L 324 202.5 L 322.5 204 L 311.5 206 L 312.5 204 Q 317.5 205 318.5 202 Z " /><path fill="rgb(191,233,245)" stroke="rgb(191,233,245)" stroke-width="1" opacity="1" d="M 127.5 204 L 132 204.5 L 127.5 205 L 127.5 204 Z " /><path fill="rgb(191,233,245)" stroke="rgb(191,233,245)" stroke-width="1" opacity="1" d="M 133.5 205 L 141.5 205 L 152.5 207 L 154.5 206 L 158 207.5 L 149.5 208 L 148.5 207 L 133.5 206 L 133.5 205 Z " /><path fill="rgb(191,233,245)" stroke="rgb(191,233,245)" stroke-width="1" opacity="1" d="M 300.5 205 L 305 205.5 L 294.5 208 L 268.5 209 L 267.5 210 L 255.5 210 L 254.5 211 L 197.5 211 L 196.5 210 L 186 209.5 L 200.5 209 L 201.5 210 L 242.5 210 L 243.5 209 L 254.5 209 L 255.5 208 L 256.5 209 L 265.5 209 L 266.5 208 L 278.5 208 L 279.5 207 L 292.5 207 L 300.5 205 Z " /><path fill="rgb(191,233,245)" stroke="rgb(191,233,245)" stroke-width="1" opacity="1" d="M 161.5 208 L 180 208.5 L 161.5 209 L 161.5 208 Z " /><path fill="rgb(191,233,245)" stroke="rgb(191,233,245)" stroke-width="1" opacity="1" d="M 207.5 213 L 222 213.5 L 208.5 214 L 207 215.5 L 207 238.5 L 206.5 239 L 110.5 239 L 110.5 238 L 205.5 238 L 206 237.5 L 206 214.5 L 207.5 213 Z " /><path fill="rgb(191,233,245)" stroke="rgb(191,233,245)" stroke-width="1" opacity="1" d="M 238.5 238 L 335 238.5 L 238.5 239 L 238.5 238 Z " /><path fill="rgb(191,233,245)" stroke="rgb(191,233,245)" stroke-width="1" opacity="1" d="M 105.5 239 L 107 239.5 L 99 244 L 98 248 L 94 250 L 94 252.5 L 92 253.5 L 94 248 L 98 245.5 L 100.5 242 L 105.5 239 Z " /><path fill="rgb(191,233,245)" stroke="rgb(191,233,245)" stroke-width="1" opacity="1" d="M 336.5 239 L 342 241 Q 340.9 243.7 343.5 243 L 349.5 248 L 351 247.5 L 352 250.5 L 350.5 250 L 348 248.5 L 346.5 246 L 339 243 Q 340.1 240.3 337.5 241 L 336.5 239 Z " /><path fill="rgb(191,233,245)" stroke="rgb(191,233,245)" stroke-width="1" opacity="1" d="M 352.5 252 Q 356.8 253.7 354 255.5 L 355 262.5 L 354 262.5 Q 354.6 257.9 352 256.5 L 352.5 252 Z " /><path fill="rgb(191,233,245)" stroke="rgb(191,233,245)" stroke-width="1" opacity="1" d="M 91.5 255 L 92.5 257 Q 89.7 257.7 91.5 255 Z " /><path fill="rgb(191,233,245)" stroke="rgb(191,233,245)" stroke-width="1" opacity="1" d="M 91.5 258 L 92 261.5 L 91 262.5 L 90 274.5 L 90.5 276 L 89 275.5 L 87.5 280 L 87 275.5 L 88 274.5 L 88 268 Q 91.5 269.1 90 261.5 L 91.5 258 Z " /><path fill="rgb(191,233,245)" stroke="rgb(191,233,245)" stroke-width="1" opacity="1" d="M 355.5 268 Q 354.6 275.4 358 278.5 L 360 299.5 L 359 299.5 L 359 293.5 L 355 275.5 L 355.5 268 Z " /><path fill="rgb(191,233,245)" stroke="rgb(191,233,245)" stroke-width="1" opacity="1" d="M 205.5 273 L 207.5 273 L 217 273.5 L 204.5 275 L 205.5 273 Z " /><path fill="rgb(191,233,245)" stroke="rgb(191,233,245)" stroke-width="1" opacity="1" d="M 226.5 273 L 230 273.5 L 227.5 275 L 226.5 273 Z " /><path fill="rgb(191,233,245)" stroke="rgb(191,233,245)" stroke-width="1" opacity="1" d="M 231.5 273 L 236.5 274 L 239.5 273 L 240.5 275 L 232.5 275 L 231.5 273 Z " /><path fill="rgb(191,233,245)" stroke="rgb(191,233,245)" stroke-width="1" opacity="1" d="M 196.5 275 L 201 275.5 L 196.5 276 L 196.5 275 Z " /><path fill="rgb(191,233,245)" stroke="rgb(191,233,245)" stroke-width="1" opacity="1" d="M 189 276 Q 193.1 274.7 192 278 L 189.5 278 L 181.5 283 L 180 282.5 Q 180.8 285.1 177.5 284 L 177.5 283 L 189 278 L 189 276 Z " /><path fill="rgb(191,233,245)" stroke="rgb(191,233,245)" stroke-width="1" opacity="1" d="M 252.5 276 L 256 277.5 L 254.5 278 L 252.5 276 Z " /><path fill="rgb(191,233,245)" stroke="rgb(191,233,245)" stroke-width="1" opacity="1" d="M 259.5 277 L 261.5 280 L 266 281 Q 267.1 283.7 264.5 283 L 257 278.5 L 259.5 277 Z " /><path fill="rgb(191,233,245)" stroke="rgb(191,233,245)" stroke-width="1" opacity="1" d="M 222 279 L 224 279.5 L 224 301 Q 220.3 302.4 222 296.5 L 221 295.5 L 221 287.5 L 221 285.5 L 222 279 Z " /><path fill="rgb(191,233,245)" stroke="rgb(191,233,245)" stroke-width="1" opacity="1" d="M 267.5 283 L 272 285.5 L 270.5 286 L 267.5 283 Z " /><path fill="rgb(191,233,245)" stroke="rgb(191,233,245)" stroke-width="1" opacity="1" d="M 175.5 284 L 174 286.5 Q 174.7 289.5 171 288 Q 169.9 285.3 172.5 286 L 175.5 284 Z " /><path fill="rgb(191,233,245)" stroke="rgb(191,233,245)" stroke-width="1" opacity="1" d="M 84 285 L 87 285 L 87 291.5 L 85 292.5 Q 85.6 287.1 84 285 Z " /><path fill="rgb(191,233,245)" stroke="rgb(191,233,245)" stroke-width="1" opacity="1" d="M 273.5 286 L 275.5 289 L 277 289.5 L 275.5 290 Q 271.9 288.9 273.5 286 Z " /><path fill="rgb(191,233,245)" stroke="rgb(191,233,245)" stroke-width="1" opacity="1" d="M 169.5 288 L 168.5 290 L 166 289.5 L 169.5 288 Z " /><path fill="rgb(191,233,245)" stroke="rgb(191,233,245)" stroke-width="1" opacity="1" d="M 180.5 290 L 187 296.5 L 187 299.5 L 191 306.5 L 191 310 Q 187.7 311.3 189 306.5 Q 186 305.3 187 301 Q 183.2 302.5 184 299.5 L 184.5 298 Q 182.3 298.8 183 296.5 Q 178.6 295.1 180.5 290 Z " /><path fill="rgb(191,233,245)" stroke="rgb(191,233,245)" stroke-width="1" opacity="1" d="M 263 290 Q 267.1 288.3 266 292.5 L 263 294 L 260 302 L 257 303.5 L 254.5 309 L 253 309 L 253 305 Q 256 306.3 255 302.5 L 260 294 Q 262.7 295.1 262 292.5 L 263 290 Z " /><path fill="rgb(191,233,245)" stroke="rgb(191,233,245)" stroke-width="1" opacity="1" d="M 279.5 290 L 284 293 L 283.5 295 L 279.5 290 Z " /><path fill="rgb(191,233,245)" stroke="rgb(191,233,245)" stroke-width="1" opacity="1" d="M 163.5 291 L 165 291.5 L 161.5 294 L 163.5 291 Z " /><path fill="rgb(191,233,245)" stroke="rgb(191,233,245)" stroke-width="1" opacity="1" d="M 84.5 294 L 85 301.5 L 83 302.5 L 84.5 294 Z " /><path fill="rgb(191,233,245)" stroke="rgb(191,233,245)" stroke-width="1" opacity="1" d="M 156 296 L 158 296.5 L 155 302 Q 152 300.8 153 304.5 L 149 306 L 148 310 Q 145.3 308.9 146 311.5 L 138 322.5 L 139 328 L 135 329.5 L 134.5 332 L 134 329.5 L 136 326.5 L 135 324.5 L 139 319.5 L 139 317.5 Q 138.3 315.3 140.5 316 L 146 309.5 L 147 306 L 150 304.5 L 151.5 302 Q 153.8 302.8 153 300.5 L 156 296 Z " /><path fill="rgb(191,233,245)" stroke="rgb(191,233,245)" stroke-width="1" opacity="1" d="M 286.5 296 L 289 297.5 L 287.5 298 L 286.5 296 Z " /><path fill="rgb(191,233,245)" stroke="rgb(191,233,245)" stroke-width="1" opacity="1" d="M 289.5 299 Q 293.3 297.8 292 301.5 L 292.5 303 L 290 302 L 289.5 299 Z " /><path fill="rgb(191,233,245)" stroke="rgb(191,233,245)" stroke-width="1" opacity="1" d="M 294.5 303 L 296.5 306 L 299 307.5 L 300 310.5 L 299 310.5 Q 299.8 308.3 297.5 309 L 294.5 305 L 293 304.5 L 294.5 303 Z " /><path fill="rgb(191,233,245)" stroke="rgb(191,233,245)" stroke-width="1" opacity="1" d="M 221.5 304 Q 224.5 303.1 223 307.5 Q 225.8 309.2 224 315.5 L 223 315.5 Q 224.1 309.4 221.5 307 Q 218.9 308.4 219.5 313 L 219 307.5 L 221.5 304 Z " /><path fill="rgb(191,233,245)" stroke="rgb(191,233,245)" stroke-width="1" opacity="1" d="M 360.5 307 L 361 312.5 L 360 312.5 L 360.5 307 Z " /><path fill="rgb(191,233,245)" stroke="rgb(191,233,245)" stroke-width="1" opacity="1" d="M 82.5 308 L 83 312.5 L 82 316 Q 79.3 317.1 80 314.5 Q 83.5 313 81 311.5 L 82.5 308 Z " /><path fill="rgb(191,233,245)" stroke="rgb(191,233,245)" stroke-width="1" opacity="1" d="M 257.5 309 L 258.5 311 Q 255.7 311.7 257.5 309 Z " /><path fill="rgb(191,233,245)" stroke="rgb(191,233,245)" stroke-width="1" opacity="1" d="M 300.5 312 L 303 316 Q 306.7 314.6 305 320.5 L 306 323 Q 309 321.8 308 325.5 L 310 327.5 L 312 335.5 L 311 335.5 L 311 332 L 309 332 Q 310.3 327.9 307 329 L 307 325.5 L 304 322.5 Q 304.6 316.3 302 314 Q 298.8 315 300.5 312 Z " /><path fill="rgb(191,233,245)" stroke="rgb(191,233,245)" stroke-width="1" opacity="1" d="M 218 314 L 220 314.5 L 220 322.5 Q 217.5 324 219 329.5 L 217.5 331 L 217 323.5 L 218 322.5 L 218 314 Z " /><path fill="rgb(191,233,245)" stroke="rgb(191,233,245)" stroke-width="1" opacity="1" d="M 361.5 314 L 364 317.5 L 365 332 L 367 332.5 L 367 341.5 L 365 340.5 L 364 338.5 L 365 334.5 L 364 330 L 362 329.5 L 363 324.5 L 361 319.5 L 361 317.5 L 361.5 314 Z " /><path fill="rgb(191,233,245)" stroke="rgb(191,233,245)" stroke-width="1" opacity="1" d="M 151.5 315 Q 154.5 314.2 153 318 L 155 318 Q 153.9 320.7 156.5 320 L 166 324.5 L 168.5 328 L 171 327 Q 172.1 329.7 169.5 329 L 167.5 329 L 164.5 330 L 161 327.5 L 158.5 324 L 155 323 Q 156.1 320.3 153.5 321 L 149 318.5 L 151.5 315 Z " /><path fill="rgb(191,233,245)" stroke="rgb(191,233,245)" stroke-width="1" opacity="1" d="M 293.5 316 Q 297.7 314.9 296 319 L 287 323 Q 288.1 325.7 285.5 325 Q 283 330 274.5 329 L 274.5 328 L 279 326 Q 277.8 323 281.5 324 L 293.5 316 Z " /><path fill="rgb(191,233,245)" stroke="rgb(191,233,245)" stroke-width="1" opacity="1" d="M 80.5 318 L 81 320.5 L 80 320.5 L 80.5 318 Z " /><path fill="rgb(191,233,245)" stroke="rgb(191,233,245)" stroke-width="1" opacity="1" d="M 224.5 318 L 226 319.5 L 226 330.5 L 224 329.5 L 224.5 318 Z " /><path fill="rgb(191,233,245)" stroke="rgb(191,233,245)" stroke-width="1" opacity="1" d="M 79.5 324 L 80 330.5 L 79 330.5 L 79.5 324 Z " /><path fill="rgb(191,233,245)" stroke="rgb(191,233,245)" stroke-width="1" opacity="1" d="M 288.5 330 L 289 332 L 287 331.5 L 288.5 330 Z " /><path fill="rgb(191,233,245)" stroke="rgb(191,233,245)" stroke-width="1" opacity="1" d="M 200.5 332 L 201 334 L 199 333.5 L 200.5 332 Z " /><path fill="rgb(191,233,245)" stroke="rgb(191,233,245)" stroke-width="1" opacity="1" d="M 231.5 332 L 232 334 L 230 333.5 L 231.5 332 Z " /><path fill="rgb(191,233,245)" stroke="rgb(191,233,245)" stroke-width="1" opacity="1" d="M 133.5 333 L 134 337.5 L 133 337.5 L 133.5 333 Z " /><path fill="rgb(191,233,245)" stroke="rgb(191,233,245)" stroke-width="1" opacity="1" d="M 188.5 334 L 189 336.5 L 188 336.5 L 188.5 334 Z " /><path fill="rgb(191,233,245)" stroke="rgb(191,233,245)" stroke-width="1" opacity="1" d="M 226 336 L 228 336.5 L 227 338.5 L 228 339.5 L 228 347.5 L 230 349.5 L 227.5 350 L 227 347.5 L 226 336 Z " /><path fill="rgb(191,233,245)" stroke="rgb(191,233,245)" stroke-width="1" opacity="1" d="M 78.5 337 L 79 340.5 L 77.5 348 L 77 339.5 L 78.5 337 Z " /><path fill="rgb(191,233,245)" stroke="rgb(191,233,245)" stroke-width="1" opacity="1" d="M 312.5 338 Q 315.3 340.8 314 347 Q 317.3 345.7 316 350.5 L 316 352.5 Q 317.5 361.5 314.5 366 L 314 348.5 L 312.5 338 Z " /><path fill="rgb(191,233,245)" stroke="rgb(191,233,245)" stroke-width="1" opacity="1" d="M 132.5 339 L 133 341.5 L 132 341.5 L 132.5 339 Z " /><path fill="rgb(191,233,245)" stroke="rgb(191,233,245)" stroke-width="1" opacity="1" d="M 216.5 341 L 217 347.5 L 216 350 L 214 349.5 L 216 347.5 L 216.5 341 Z " /><path fill="rgb(191,233,245)" stroke="rgb(191,233,245)" stroke-width="1" opacity="1" d="M 131.5 343 L 132 353.5 L 130.5 362 L 130 350.5 L 131 345.5 Q 128.8 344.3 131.5 343 Z " /><path fill="rgb(191,233,245)" stroke="rgb(191,233,245)" stroke-width="1" opacity="1" d="M 367.5 348 Q 369.8 349.8 369 354.5 L 371 356.5 L 373 377.5 L 372 377.5 L 371 365.5 L 368 361.5 L 369 358.5 L 367 353.5 L 367 351.5 L 367.5 348 Z " /><path fill="rgb(191,233,245)" stroke="rgb(191,233,245)" stroke-width="1" opacity="1" d="M 75 350 Q 77.7 348.9 77 351.5 L 76 354.5 L 75.5 356 L 75 350 Z " /><path fill="rgb(191,233,245)" stroke="rgb(191,233,245)" stroke-width="1" opacity="1" d="M 211.5 350 L 212 351.5 L 211 354 L 208 355.5 L 208 363.5 L 206.5 365 L 206 358.5 L 207 354 L 211 351.5 L 211.5 350 Z " /><path fill="rgb(191,233,245)" stroke="rgb(191,233,245)" stroke-width="1" opacity="1" d="M 232.5 350 L 234 350 L 234 352 Q 236.7 350.9 236 353.5 Q 240.8 355.5 239 363 L 237 362.5 L 237 360.5 L 236 354 Q 233.3 355.1 234 352.5 L 232.5 350 Z " /><path fill="rgb(191,233,245)" stroke="rgb(191,233,245)" stroke-width="1" opacity="1" d="M 139.5 354 L 159.5 354 L 161 355.5 Q 161.6 358.3 155.5 357 L 154.5 358 L 139.5 358 L 137.5 355 L 139.5 354 Z " /><path fill="rgb(191,233,245)" stroke="rgb(191,233,245)" stroke-width="1" opacity="1" d="M 286.5 354 L 303.5 354 L 307 355 Q 308.3 358 304.5 357 L 303.5 358 L 289 358 Q 290.4 354.3 284.5 356 L 284.5 355 L 286.5 354 Z " /><path fill="rgb(191,233,245)" stroke="rgb(191,233,245)" stroke-width="1" opacity="1" d="M 75.5 357 L 76 360.5 L 75 360.5 L 75.5 357 Z " /><path fill="rgb(191,233,245)" stroke="rgb(191,233,245)" stroke-width="1" opacity="1" d="M 74.5 364 L 76 368.5 L 72 385 Q 69.3 386.1 70 383.5 Q 72.6 380.6 72 374.5 L 74 371.5 L 74.5 364 Z " /><path fill="rgb(191,233,245)" stroke="rgb(191,233,245)" stroke-width="1" opacity="1" d="M 237.5 364 L 239 366.5 L 236 368 L 237.5 364 Z " /><path fill="rgb(191,233,245)" stroke="rgb(191,233,245)" stroke-width="1" opacity="1" d="M 131.5 366 L 132 370.5 L 131 370.5 L 131.5 366 Z " /><path fill="rgb(191,233,245)" stroke="rgb(191,233,245)" stroke-width="1" opacity="1" d="M 207.5 366 L 209.5 369 L 212.5 371 L 215.5 375 L 213.5 375 L 209 370.5 L 207.5 366 Z " /><path fill="rgb(191,233,245)" stroke="rgb(191,233,245)" stroke-width="1" opacity="1" d="M 314.5 367 L 315 370.5 L 312.5 376 L 312 372.5 L 313 369.5 L 314.5 367 Z " /><path fill="rgb(191,233,245)" stroke="rgb(191,233,245)" stroke-width="1" opacity="1" d="M 234 369 Q 237 368 236 371 Q 233 372 234 369 Z " /><path fill="rgb(191,233,245)" stroke="rgb(191,233,245)" stroke-width="1" opacity="1" d="M 132.5 372 L 133 375.5 L 132 375.5 L 132.5 372 Z " /><path fill="rgb(191,233,245)" stroke="rgb(191,233,245)" stroke-width="1" opacity="1" d="M 231.5 372 L 232 374 Q 227.4 377.1 217.5 376 L 217.5 375 Q 227.7 376.7 231.5 372 Z " /><path fill="rgb(191,233,245)" stroke="rgb(191,233,245)" stroke-width="1" opacity="1" d="M 311.5 377 L 312 378.5 L 310 384.5 Q 312.3 385.8 309.5 387 L 309 383.5 L 311.5 377 Z " /><path fill="rgb(191,233,245)" stroke="rgb(191,233,245)" stroke-width="1" opacity="1" d="M 135.5 384 L 138 388.5 L 137.5 390 Q 140.5 389.1 139 393.5 L 145 399.5 L 145 401.5 L 149 406.5 L 146 407 L 144.5 403 Q 141.5 403.9 143 399.5 L 142 397 L 137 393.5 L 136 388 L 134 387.5 L 135.5 384 Z " /><path fill="rgb(191,233,245)" stroke="rgb(191,233,245)" stroke-width="1" opacity="1" d="M 276.5 384 L 292.5 394 L 296 394 Q 297.2 397.7 292 396 Q 293.3 392.7 288.5 394 L 284 392 Q 285.3 389 281.5 390 Q 279.5 386.8 275 387 L 276.5 384 Z " /><path fill="rgb(191,233,245)" stroke="rgb(191,233,245)" stroke-width="1" opacity="1" d="M 165.5 385 Q 169.9 383.5 169 386.5 L 161 390.5 Q 161.8 393.1 158.5 392 Q 157.3 395 153 394 Q 154.2 397.7 149 396 Q 147.8 392.3 153 394 L 155 390 L 158.5 390 Q 159.6 387.3 163 388 Q 161.9 385.3 164.5 386 L 165.5 385 Z " /><path fill="rgb(191,233,245)" stroke="rgb(191,233,245)" stroke-width="1" opacity="1" d="M 70.5 386 L 71 389.5 L 68.5 396 L 68 394.5 L 70.5 386 Z " /><path fill="rgb(191,233,245)" stroke="rgb(191,233,245)" stroke-width="1" opacity="1" d="M 307.5 387 L 306.5 389 L 307.5 387 Z " /><path fill="rgb(191,233,245)" stroke="rgb(191,233,245)" stroke-width="1" opacity="1" d="M 373.5 387 L 375 392 Q 370.9 393.2 373.5 387 Z " /><path fill="rgb(191,233,245)" stroke="rgb(191,233,245)" stroke-width="1" opacity="1" d="M 306.5 390 L 307 391.5 L 305 392.5 L 306.5 390 Z " /><path fill="rgb(191,233,245)" stroke="rgb(191,233,245)" stroke-width="1" opacity="1" d="M 304.5 394 L 305 395.5 Q 302.3 396.6 303 400 L 300.5 401 L 301 399.5 L 304.5 394 Z " /><path fill="rgb(191,233,245)" stroke="rgb(191,233,245)" stroke-width="1" opacity="1" d="M 374.5 394 L 377 397.5 L 379 416.5 L 378 416.5 L 377 414.5 L 377 412.5 L 377 405.5 L 374 399.5 L 374 397.5 L 374.5 394 Z " /><path fill="rgb(191,233,245)" stroke="rgb(191,233,245)" stroke-width="1" opacity="1" d="M 67.5 403 L 68 410.5 L 67 410.5 L 67.5 403 Z " /><path fill="rgb(191,233,245)" stroke="rgb(191,233,245)" stroke-width="1" opacity="1" d="M 299.5 403 L 300 406 L 297.5 407 L 299 404.5 L 299.5 403 Z " /><path fill="rgb(191,233,245)" stroke="rgb(191,233,245)" stroke-width="1" opacity="1" d="M 189 405 Q 193.1 403.7 192 407 L 189 408.5 Q 188.2 419.2 180.5 423 L 179 422.5 L 187 411.5 L 187 408.5 L 189 405 Z " /><path fill="rgb(191,233,245)" stroke="rgb(191,233,245)" stroke-width="1" opacity="1" d="M 254.5 405 Q 261.3 410.5 263 420 Q 267.5 418.5 266 423 L 263.5 424 L 261 418 Q 258.3 419.1 259 416.5 L 257 411 Q 254.3 412.1 255 409.5 L 253 406.5 L 254.5 405 Z " /><path fill="rgb(191,233,245)" stroke="rgb(191,233,245)" stroke-width="1" opacity="1" d="M 149.5 408 L 153 410.5 L 151 411 Q 152.1 408.3 149.5 409 L 149.5 408 Z " /><path fill="rgb(191,233,245)" stroke="rgb(191,233,245)" stroke-width="1" opacity="1" d="M 291.5 408 L 293.5 409 L 295.5 408 L 295.5 409 L 293.5 410 L 291.5 408 Z " /><path fill="rgb(191,233,245)" stroke="rgb(191,233,245)" stroke-width="1" opacity="1" d="M 66.5 412 L 67 415.5 L 66 417.5 Q 68.5 419 65 420.5 L 64 432.5 L 62.5 435 L 62 428.5 L 64 422.5 L 64 416.5 L 66.5 412 Z " /><path fill="rgb(191,233,245)" stroke="rgb(191,233,245)" stroke-width="1" opacity="1" d="M 222 413 L 224 413.5 L 224 434 L 222 433.5 L 222 413 Z " /><path fill="rgb(191,233,245)" stroke="rgb(191,233,245)" stroke-width="1" opacity="1" d="M 289.5 414 L 287.5 417 L 289.5 414 Z " /><path fill="rgb(191,233,245)" stroke="rgb(191,233,245)" stroke-width="1" opacity="1" d="M 156.5 416 L 161 417 L 163.5 421 L 168 422 Q 166.5 425.8 169.5 425 L 169.5 426 L 160 420 Q 161.3 417 157.5 418 L 156.5 416 Z " /><path fill="rgb(191,233,245)" stroke="rgb(191,233,245)" stroke-width="1" opacity="1" d="M 281.5 420 L 280 422.5 L 277.5 426 Q 274.5 426.7 276 423 L 281.5 420 Z " /><path fill="rgb(191,233,245)" stroke="rgb(191,233,245)" stroke-width="1" opacity="1" d="M 379 420 L 381 420.5 L 381 428.5 L 382 430.5 L 380 431.5 L 379 420 Z " /><path fill="rgb(191,233,245)" stroke="rgb(191,233,245)" stroke-width="1" opacity="1" d="M 274.5 425 L 272.5 428 L 270 429.5 Q 270.8 431.8 268.5 431 L 267.5 430 L 264.5 433 L 262 432.5 L 274.5 425 Z " /><path fill="rgb(191,233,245)" stroke="rgb(191,233,245)" stroke-width="1" opacity="1" d="M 171.5 426 L 184 432.5 L 180.5 433 L 171.5 427 L 171.5 426 Z " /><path fill="rgb(191,233,245)" stroke="rgb(191,233,245)" stroke-width="1" opacity="1" d="M 185.5 433 L 194.5 437 L 205.5 439 L 213.5 439 L 214.5 440 L 216.5 440 L 240.5 439 L 240.5 440 L 235.5 441 L 209.5 441 L 198.5 438 L 192.5 438 L 185.5 434 L 185.5 433 Z " /><path fill="rgb(191,233,245)" stroke="rgb(191,233,245)" stroke-width="1" opacity="1" d="M 257.5 433 Q 261.3 432 260 435 L 245.5 439 L 245.5 438 L 255.5 435 L 257.5 433 Z " /><path fill="rgb(191,233,245)" stroke="rgb(191,233,245)" stroke-width="1" opacity="1" d="M 380.5 433 L 384 437.5 L 384 444.5 L 386 453.5 L 384 452.5 L 384 445.5 L 381 440.5 L 382 436.5 L 380.5 433 Z " /><path fill="rgb(191,233,245)" stroke="rgb(191,233,245)" stroke-width="1" opacity="1" d="M 61.5 438 L 62 445.5 L 61 445.5 L 61.5 438 Z " /><path fill="rgb(191,233,245)" stroke="rgb(191,233,245)" stroke-width="1" opacity="1" d="M 60.5 451 L 61 453.5 L 59 459.5 L 61 460 L 62 467.5 L 61 467.5 L 58 461.5 L 58 454.5 L 60.5 451 Z " /><path fill="rgb(191,233,245)" stroke="rgb(191,233,245)" stroke-width="1" opacity="1" d="M 384.5 464 L 386 464.5 L 384 469 L 381 470.5 Q 381.7 473.1 379 472 L 384.5 464 Z " /><path fill="rgb(191,233,245)" stroke="rgb(191,233,245)" stroke-width="1" opacity="1" d="M 62 469 L 68.5 473 Q 73.3 471.7 74.5 474 L 372.5 474 Q 373.8 471 378 472 Q 379.4 475.7 373.5 474 L 372.5 475 L 71.5 475 L 62 471 L 62 469 Z " /></svg>