<svg width="240" height="287" version="1.1" xmlns="http://www.w3.org/2000/svg" desc="Created with imagetracer.js version 1.2.6" ><path fill="rgb(0,0,0)" stroke="rgb(0,0,0)" stroke-width="1" opacity="0" d="M 0 0 L 240 0 L 240 287 L 0 287 L 0 0 Z M 174 22 L 169 25 Q 170 27 167 26 L 164 31 Q 165 33 163 32 L 157 40 Q 154 39 155 42 L 150 44 Q 151 48 148 51 L 144 53 L 146 57 L 148 57 L 150 61 L 150 64 Q 154 62 153 66 L 156 67 L 161 74 Q 163 73 162 76 L 164 76 L 167 81 L 169 84 L 174 86 Q 177 87 178 85 L 178 71 L 205 71 L 206 70 L 206 39 L 205 37 L 178 37 L 178 25 L 179 24 L 174 22 Z M 103 24 L 93 34 L 93 36 L 100 44 L 84 70 Q 85 74 81 72 L 81 74 L 16 173 L 12 181 L 10 190 Q 10 199 13 206 L 22 219 Q 34 231 52 237 L 78 244 L 97 245 L 98 246 Q 148 246 177 225 Q 189 216 195 200 L 195 185 L 192 177 L 105 45 L 113 36 L 113 34 L 103 24 Z M 41 243 L 43 248 L 43 257 L 46 257 L 47 250 L 51 252 L 53 255 L 53 266 L 56 266 L 56 256 L 65 259 L 66 260 L 66 272 L 69 272 L 69 260 L 75 262 L 80 262 L 80 276 L 83 276 L 83 263 L 90 264 Q 94 263 94 265 L 94 280 L 97 280 L 97 264 L 108 264 L 108 280 L 111 280 L 111 263 L 117 262 L 121 262 L 121 275 L 124 275 L 124 261 L 131 259 L 133 260 L 133 271 L 136 271 L 136 257 L 142 255 L 143 256 L 143 267 L 146 267 L 146 254 L 150 251 L 152 250 L 152 256 L 155 256 Q 153 247 157 243 L 151 243 L 144 249 L 133 254 L 108 259 L 89 259 L 88 258 L 76 257 L 60 252 Q 51 249 47 243 L 41 243 Z " /><path fill="rgb(49,170,216)" stroke="rgb(49,170,216)" stroke-width="1" opacity="1" d="M 167 26 L 169 26.5 L 167 27.5 L 167 26 Z " /><path fill="rgb(49,170,216)" stroke="rgb(49,170,216)" stroke-width="1" opacity="1" d="M 162.5 32 L 162 33.5 L 160.5 37 L 160 35.5 L 162.5 32 Z " /><path fill="rgb(49,170,216)" stroke="rgb(49,170,216)" stroke-width="1" opacity="1" d="M 170.5 35 L 172 42.5 L 173.5 44 L 199 44 L 199 64 L 173.5 64 L 172 65.5 L 170.5 73 L 167.5 69 L 165 67.5 L 163.5 64 L 159 63 L 156 55 Q 153 56 154 53 Q 156.7 54.1 156 51.5 L 162.5 44 L 168 39.5 L 170.5 35 Z " /><path fill="rgb(49,170,216)" stroke="rgb(49,170,216)" stroke-width="1" opacity="1" d="M 99.5 44 L 101 44.5 L 94.5 54 L 95 52.5 L 99.5 44 Z " /><path fill="rgb(49,170,216)" stroke="rgb(49,170,216)" stroke-width="1" opacity="1" d="M 111.5 54 L 112.5 56 L 111.5 54 Z " /><path fill="rgb(49,170,216)" stroke="rgb(49,170,216)" stroke-width="1" opacity="1" d="M 93.5 55 L 92 57.5 L 90.5 60 L 91 58.5 L 93.5 55 Z " /><path fill="rgb(49,170,216)" stroke="rgb(49,170,216)" stroke-width="1" opacity="1" d="M 113.5 57 L 114.5 59 L 113.5 57 Z " /><path fill="rgb(49,170,216)" stroke="rgb(49,170,216)" stroke-width="1" opacity="1" d="M 89.5 61 L 88.5 63 L 89.5 61 Z " /><path fill="rgb(49,170,216)" stroke="rgb(49,170,216)" stroke-width="1" opacity="1" d="M 87.5 64 L 86.5 66 L 87.5 64 Z " /><path fill="rgb(49,170,216)" stroke="rgb(49,170,216)" stroke-width="1" opacity="1" d="M 153.5 64 L 154.5 66 L 156 65.5 Q 154.5 68.5 153 65.5 L 153.5 64 Z " /><path fill="rgb(49,170,216)" stroke="rgb(49,170,216)" stroke-width="1" opacity="1" d="M 80.5 72 Q 82.8 71.3 82 73.5 L 80.5 72 Z " /><path fill="rgb(49,170,216)" stroke="rgb(49,170,216)" stroke-width="1" opacity="1" d="M 159.5 72 L 160.5 74 L 159.5 72 Z " /><path fill="rgb(49,170,216)" stroke="rgb(49,170,216)" stroke-width="1" opacity="1" d="M 80.5 75 L 79.5 77 L 80.5 75 Z " /><path fill="rgb(49,170,216)" stroke="rgb(49,170,216)" stroke-width="1" opacity="1" d="M 78.5 78 L 77.5 80 L 78.5 78 Z " /><path fill="rgb(49,170,216)" stroke="rgb(49,170,216)" stroke-width="1" opacity="1" d="M 128.5 80 L 129.5 82 L 128.5 80 Z " /><path fill="rgb(49,170,216)" stroke="rgb(49,170,216)" stroke-width="1" opacity="1" d="M 76.5 81 L 75.5 83 L 76.5 81 Z " /><path fill="rgb(49,170,216)" stroke="rgb(49,170,216)" stroke-width="1" opacity="1" d="M 130.5 83 L 131.5 85 L 130.5 83 Z " /><path fill="rgb(49,170,216)" stroke="rgb(49,170,216)" stroke-width="1" opacity="1" d="M 74.5 84 L 73.5 86 L 74.5 84 Z " /><path fill="rgb(49,170,216)" stroke="rgb(49,170,216)" stroke-width="1" opacity="1" d="M 72.5 87 L 72 88.5 L 70.5 91 L 71 89.5 L 72.5 87 Z " /><path fill="rgb(49,170,216)" stroke="rgb(49,170,216)" stroke-width="1" opacity="1" d="M 69.5 92 L 68.5 94 L 69.5 92 Z " /><path fill="rgb(49,170,216)" stroke="rgb(49,170,216)" stroke-width="1" opacity="1" d="M 67.5 95 L 66.5 97 L 67.5 95 Z " /><path fill="rgb(49,170,216)" stroke="rgb(49,170,216)" stroke-width="1" opacity="1" d="M 65.5 98 L 64.5 100 L 65.5 98 Z " /><path fill="rgb(49,170,216)" stroke="rgb(49,170,216)" stroke-width="1" opacity="1" d="M 63.5 101 L 62.5 103 L 63.5 101 Z " /><path fill="rgb(49,170,216)" stroke="rgb(49,170,216)" stroke-width="1" opacity="1" d="M 61.5 104 L 60.5 106 L 61.5 104 Z " /><path fill="rgb(49,170,216)" stroke="rgb(49,170,216)" stroke-width="1" opacity="1" d="M 145.5 106 L 146.5 108 L 145.5 106 Z " /><path fill="rgb(49,170,216)" stroke="rgb(49,170,216)" stroke-width="1" opacity="1" d="M 59.5 107 L 58.5 109 L 59.5 107 Z " /><path fill="rgb(49,170,216)" stroke="rgb(49,170,216)" stroke-width="1" opacity="1" d="M 147.5 109 L 148.5 111 L 147.5 109 Z " /><path fill="rgb(49,170,216)" stroke="rgb(49,170,216)" stroke-width="1" opacity="1" d="M 57.5 110 L 56.5 112 L 57.5 110 Z " /><path fill="rgb(49,170,216)" stroke="rgb(49,170,216)" stroke-width="1" opacity="1" d="M 55.5 113 L 55 114.5 L 53.5 117 L 54 115.5 L 55.5 113 Z " /><path fill="rgb(49,170,216)" stroke="rgb(49,170,216)" stroke-width="1" opacity="1" d="M 52.5 118 L 51.5 120 L 52.5 118 Z " /><path fill="rgb(49,170,216)" stroke="rgb(49,170,216)" stroke-width="1" opacity="1" d="M 50.5 121 L 49.5 123 L 50.5 121 Z " /><path fill="rgb(49,170,216)" stroke="rgb(49,170,216)" stroke-width="1" opacity="1" d="M 48.5 124 L 47.5 126 L 48.5 124 Z " /><path fill="rgb(49,170,216)" stroke="rgb(49,170,216)" stroke-width="1" opacity="1" d="M 46.5 127 L 45.5 129 L 46.5 127 Z " /><path fill="rgb(49,170,216)" stroke="rgb(49,170,216)" stroke-width="1" opacity="1" d="M 44.5 130 L 43.5 132 L 44.5 130 Z " /><path fill="rgb(49,170,216)" stroke="rgb(49,170,216)" stroke-width="1" opacity="1" d="M 162.5 132 L 163.5 134 L 162.5 132 Z " /><path fill="rgb(49,170,216)" stroke="rgb(49,170,216)" stroke-width="1" opacity="1" d="M 42.5 133 L 41.5 135 L 42.5 133 Z " /><path fill="rgb(49,170,216)" stroke="rgb(49,170,216)" stroke-width="1" opacity="1" d="M 164.5 135 L 165.5 137 L 164.5 135 Z " /><path fill="rgb(49,170,216)" stroke="rgb(49,170,216)" stroke-width="1" opacity="1" d="M 40.5 136 L 39.5 138 L 40.5 136 Z " /><path fill="rgb(49,170,216)" stroke="rgb(49,170,216)" stroke-width="1" opacity="1" d="M 38.5 139 L 38 140.5 L 36.5 143 L 37 141.5 L 38.5 139 Z " /><path fill="rgb(49,170,216)" stroke="rgb(49,170,216)" stroke-width="1" opacity="1" d="M 35.5 144 L 34.5 146 L 35.5 144 Z " /><path fill="rgb(49,170,216)" stroke="rgb(49,170,216)" stroke-width="1" opacity="1" d="M 33.5 147 L 32.5 149 L 33.5 147 Z " /><path fill="rgb(49,170,216)" stroke="rgb(49,170,216)" stroke-width="1" opacity="1" d="M 31.5 150 L 30.5 152 L 31.5 150 Z " /><path fill="rgb(49,170,216)" stroke="rgb(49,170,216)" stroke-width="1" opacity="1" d="M 29.5 153 L 28.5 155 L 29.5 153 Z " /><path fill="rgb(49,170,216)" stroke="rgb(49,170,216)" stroke-width="1" opacity="1" d="M 27.5 156 L 26.5 158 L 27.5 156 Z " /><path fill="rgb(49,170,216)" stroke="rgb(49,170,216)" stroke-width="1" opacity="1" d="M 179.5 158 L 180.5 160 L 179.5 158 Z " /><path fill="rgb(49,170,216)" stroke="rgb(49,170,216)" stroke-width="1" opacity="1" d="M 25.5 159 L 24.5 161 L 25.5 159 Z " /><path fill="rgb(49,170,216)" stroke="rgb(49,170,216)" stroke-width="1" opacity="1" d="M 181.5 161 L 182.5 163 L 181.5 161 Z " /><path fill="rgb(49,170,216)" stroke="rgb(49,170,216)" stroke-width="1" opacity="1" d="M 23.5 162 L 22.5 164 L 23.5 162 Z " /><path fill="rgb(49,170,216)" stroke="rgb(49,170,216)" stroke-width="1" opacity="1" d="M 183.5 164 L 184.5 166 L 183.5 164 Z " /><path fill="rgb(49,170,216)" stroke="rgb(49,170,216)" stroke-width="1" opacity="1" d="M 21.5 165 L 20.5 167 L 21.5 165 Z " /><path fill="rgb(49,170,216)" stroke="rgb(49,170,216)" stroke-width="1" opacity="1" d="M 19.5 168 L 18.5 170 L 19.5 168 Z " /><path fill="rgb(49,170,216)" stroke="rgb(49,170,216)" stroke-width="1" opacity="1" d="M 17.5 171 L 17 172.5 L 15.5 175 L 16 173.5 L 17.5 171 Z " /><path fill="rgb(49,170,216)" stroke="rgb(49,170,216)" stroke-width="1" opacity="1" d="M 10.5 189 L 11 193.5 L 10 193.5 L 10.5 189 Z " /><path fill="rgb(49,170,216)" stroke="rgb(49,170,216)" stroke-width="1" opacity="1" d="M 17.5 212 L 18.5 214 L 17.5 212 Z " /><path fill="rgb(49,170,216)" stroke="rgb(49,170,216)" stroke-width="1" opacity="1" d="M 22.5 218 L 23.5 220 L 22.5 218 Z " /><path fill="rgb(49,170,216)" stroke="rgb(49,170,216)" stroke-width="1" opacity="1" d="M 28.5 223 L 29.5 225 L 28.5 223 Z " /><path fill="rgb(49,170,216)" stroke="rgb(49,170,216)" stroke-width="1" opacity="1" d="M 177.5 223 L 176.5 225 L 177.5 223 Z " /><path fill="rgb(49,170,216)" stroke="rgb(49,170,216)" stroke-width="1" opacity="1" d="M 84.5 244 L 87 244.5 L 84.5 245 L 84.5 244 Z " /><path fill="rgb(49,170,216)" stroke="rgb(49,170,216)" stroke-width="1" opacity="1" d="M 118.5 244 L 121 244.5 L 118.5 245 L 118.5 244 Z " /><path fill="rgb(49,170,216)" stroke="rgb(49,170,216)" stroke-width="1" opacity="1" d="M 97.5 245 L 109 245.5 L 97.5 246 L 97.5 245 Z " /><path fill="rgb(0,153,0)" stroke="rgb(0,153,0)" stroke-width="1" opacity="1" d="M 102.5 53 L 105 54.5 L 113 82.5 L 116 101.5 L 121 118.5 L 122 127.5 L 136 182.5 L 139 201.5 L 148 238 L 128.5 243 L 125 223.5 L 125 217.5 L 124 216.5 L 124 207.5 L 121 191.5 L 120 174.5 L 118 167.5 L 117 150.5 L 114 136.5 L 111 101.5 L 107 80.5 L 107 71.5 Q 104.8 70.3 106 65.5 L 103.5 63 L 100 65.5 L 98 83.5 L 97 84.5 L 96 103.5 L 91 132.5 L 90 152.5 L 87 167.5 L 87 177.5 L 84 192.5 L 84 201.5 L 83 202.5 L 78 243 L 59.5 239 L 58 237.5 L 68 195.5 L 71 177.5 L 86 117.5 L 86 112.5 L 89 103.5 L 95 73.5 L 99 59.5 L 102.5 53 Z " /><path fill="rgb(11,30,2)" stroke="rgb(11,30,2)" stroke-width="1" opacity="1" d="M 173.5 22 L 179 23.5 L 178 24.5 L 178 37 L 204.5 37 L 206 38.5 L 206 69.5 L 204.5 71 L 178 71 L 178 84.5 Q 177.3 86.8 173.5 86 L 169 83.5 L 168 80 L 164 77.5 L 162.5 73 Q 160.7 75.7 159 71.5 L 154 64 Q 148.4 66.2 150 60.5 L 147 55 Q 142.9 56.3 144 53 Q 147.8 54.5 147 51.5 Q 150.9 49.4 150 44 L 153.5 42 L 156 43 Q 155.3 38.3 159.5 37 L 162 35.5 L 166.5 28 L 169 26.5 L 170.5 23 L 173.5 22 Z M 171 35 L 168 40 L 163 44 L 156 52 Q 157 54 154 53 Q 153 56 156 55 L 159 63 L 164 64 L 165 68 L 168 69 L 171 73 L 172 66 L 174 64 L 199 64 L 199 44 L 174 44 L 172 43 L 171 35 Z " /><path fill="rgb(11,30,2)" stroke="rgb(11,30,2)" stroke-width="1" opacity="1" d="M 102.5 24 L 113 33.5 L 113 35.5 L 105 45 Q 98.6 46 97 40.5 L 93 35.5 L 93 33.5 L 102.5 24 Z " /><path fill="rgb(11,30,2)" stroke="rgb(11,30,2)" stroke-width="1" opacity="1" d="M 105.5 46 L 190 174.5 Q 195.1 181.4 195 193.5 L 193.5 200 L 117 65.5 L 106 50.5 L 105.5 46 Z " /><path fill="rgb(11,30,2)" stroke="rgb(11,30,2)" stroke-width="1" opacity="1" d="M 91.5 60 L 92 61.5 L 12.5 200 Q 10 195.5 11 187.5 L 16 174.5 L 91.5 60 Z " /><path fill="rgb(11,30,2)" stroke="rgb(11,30,2)" stroke-width="1" opacity="1" d="M 40.5 243 L 46.5 243 Q 51.4 249.1 59.5 252 L 75.5 257 L 87.5 258 L 88.5 259 L 107.5 259 L 132.5 254 L 143.5 249 L 150.5 243 L 157 243 Q 153.3 246.6 155 256 L 152 256 L 152 249.5 L 149.5 251 L 146 253.5 L 146 266.5 L 143 267 L 143 255.5 L 141.5 255 L 136 257 L 136 270.5 L 133 271 L 133 259.5 L 130.5 259 L 124 261 L 124 274.5 L 121 275 L 121 262 L 116.5 262 L 111 263 L 111 279.5 L 108 280 L 108 264 L 97 264 L 97 279.5 L 94 280 L 94 264.5 Q 94 263.5 89.5 264 L 83 263 L 83 275.5 L 80 276 L 80 262 L 74.5 262 L 69 260 L 69 271.5 L 66 272 L 66 259.5 L 64.5 259 L 56 256 L 56 265.5 L 53 266 L 53 254.5 L 50.5 252 L 46.5 250 L 46 257 L 43 256.5 L 43 247.5 L 40.5 243 Z " /><path fill="rgb(0,159,0)" stroke="rgb(0,159,0)" stroke-width="1" opacity="1" d="M 102.5 63 L 106 65.5 L 107 80.5 L 111 101.5 L 114 136.5 L 117 150.5 L 118 167.5 L 120 174.5 L 121 191.5 L 124 207.5 L 124 216.5 L 125 217.5 L 128 243 L 121.5 244 L 111.5 244 L 110.5 245 L 94.5 245 L 93.5 244 L 83.5 244 L 78 243 L 83 202.5 L 84 201.5 L 84 192.5 L 87 177.5 L 87 167.5 L 90 152.5 L 91 132.5 L 96 103.5 L 98 76.5 L 100 65.5 L 102.5 63 Z " /><path fill="rgb(0,106,0)" stroke="rgb(0,106,0)" stroke-width="1" opacity="1" d="M 99.5 48 L 99 49.5 L 92 73.5 L 82 97.5 L 77 114.5 L 55 171.5 L 48 194.5 L 44 202.5 L 36 227 L 29.5 224 L 18 212.5 L 12 200.5 L 92 61.5 L 95 53.5 L 99.5 48 Z " /><path fill="rgb(0,106,0)" stroke="rgb(0,106,0)" stroke-width="1" opacity="1" d="M 106.5 51 L 117 65.5 L 194 200.5 L 190 209.5 L 183 219 L 170 227 L 157 188.5 L 151 175.5 L 136 131.5 L 131 120.5 L 125 100.5 L 116 79.5 L 112 65.5 L 107 55.5 L 106.5 51 Z " /><path fill="rgb(0,138,0)" stroke="rgb(0,138,0)" stroke-width="1" opacity="1" d="M 101.5 45 Q 104.8 43.9 104 46.5 L 125 100.5 L 131 120.5 L 171 227.5 L 148.5 238 L 139 201.5 L 136 182.5 L 128 153.5 L 121 118.5 L 116 101.5 L 113 82.5 L 109 66.5 L 103.5 53 L 101 54.5 L 95 73.5 L 95 77.5 L 86 112.5 L 86 117.5 L 71 177.5 L 68 195.5 L 58 238 Q 45.1 234.6 35 227.5 L 77 114.5 L 82 97.5 L 92 73.5 L 100 48.5 Q 97.3 46.8 101.5 45 Z " /><path fill="rgb(0,138,0)" stroke="rgb(0,138,0)" stroke-width="1" opacity="1" d="M 177.5 222 L 176.5 224 L 177.5 222 Z " /><path fill="rgb(0,138,0)" stroke="rgb(0,138,0)" stroke-width="1" opacity="1" d="M 173.5 225 L 172.5 227 L 173.5 225 Z " /><path fill="rgb(48,172,48)" stroke="rgb(48,172,48)" stroke-width="1" opacity="1" d="M 100.5 45 L 99.5 47 L 100.5 45 Z " /><path fill="rgb(48,172,48)" stroke="rgb(48,172,48)" stroke-width="1" opacity="1" d="M 106.5 47 L 107.5 49 L 106.5 47 Z " /><path fill="rgb(48,172,48)" stroke="rgb(48,172,48)" stroke-width="1" opacity="1" d="M 108.5 50 L 109.5 52 L 108.5 50 Z " /><path fill="rgb(48,172,48)" stroke="rgb(48,172,48)" stroke-width="1" opacity="1" d="M 93.5 56 L 92.5 58 L 93.5 56 Z " /><path fill="rgb(48,172,48)" stroke="rgb(48,172,48)" stroke-width="1" opacity="1" d="M 91.5 59 L 90.5 61 L 91.5 59 Z " /><path fill="rgb(48,172,48)" stroke="rgb(48,172,48)" stroke-width="1" opacity="1" d="M 123.5 73 L 124.5 75 L 123.5 73 Z " /><path fill="rgb(48,172,48)" stroke="rgb(48,172,48)" stroke-width="1" opacity="1" d="M 125.5 76 L 126.5 78 L 125.5 76 Z " /><path fill="rgb(48,172,48)" stroke="rgb(48,172,48)" stroke-width="1" opacity="1" d="M 76.5 82 L 75.5 84 L 76.5 82 Z " /><path fill="rgb(48,172,48)" stroke="rgb(48,172,48)" stroke-width="1" opacity="1" d="M 74.5 85 L 73.5 87 L 74.5 85 Z " /><path fill="rgb(48,172,48)" stroke="rgb(48,172,48)" stroke-width="1" opacity="1" d="M 140.5 99 L 141.5 101 L 140.5 99 Z " /><path fill="rgb(48,172,48)" stroke="rgb(48,172,48)" stroke-width="1" opacity="1" d="M 142.5 102 L 143.5 104 L 142.5 102 Z " /><path fill="rgb(48,172,48)" stroke="rgb(48,172,48)" stroke-width="1" opacity="1" d="M 59.5 108 L 58.5 110 L 59.5 108 Z " /><path fill="rgb(48,172,48)" stroke="rgb(48,172,48)" stroke-width="1" opacity="1" d="M 57.5 111 L 56.5 113 L 57.5 111 Z " /><path fill="rgb(48,172,48)" stroke="rgb(48,172,48)" stroke-width="1" opacity="1" d="M 157.5 125 L 158.5 127 L 157.5 125 Z " /><path fill="rgb(48,172,48)" stroke="rgb(48,172,48)" stroke-width="1" opacity="1" d="M 159.5 128 L 160.5 130 L 159.5 128 Z " /><path fill="rgb(48,172,48)" stroke="rgb(48,172,48)" stroke-width="1" opacity="1" d="M 42.5 134 L 41.5 136 L 42.5 134 Z " /><path fill="rgb(48,172,48)" stroke="rgb(48,172,48)" stroke-width="1" opacity="1" d="M 40.5 137 L 39.5 139 L 40.5 137 Z " /><path fill="rgb(48,172,48)" stroke="rgb(48,172,48)" stroke-width="1" opacity="1" d="M 174.5 151 L 175.5 153 L 174.5 151 Z " /><path fill="rgb(48,172,48)" stroke="rgb(48,172,48)" stroke-width="1" opacity="1" d="M 176.5 154 L 177.5 156 L 176.5 154 Z " /><path fill="rgb(48,172,48)" stroke="rgb(48,172,48)" stroke-width="1" opacity="1" d="M 23.5 163 L 22.5 165 L 23.5 163 Z " /><path fill="rgb(48,172,48)" stroke="rgb(48,172,48)" stroke-width="1" opacity="1" d="M 21.5 166 L 20.5 168 L 21.5 166 Z " /><path fill="rgb(48,172,48)" stroke="rgb(48,172,48)" stroke-width="1" opacity="1" d="M 19.5 169 L 18.5 171 L 19.5 169 Z " /><path fill="rgb(48,172,48)" stroke="rgb(48,172,48)" stroke-width="1" opacity="1" d="M 19.5 214 L 27.5 223 L 19.5 214 Z " /><path fill="rgb(48,172,48)" stroke="rgb(48,172,48)" stroke-width="1" opacity="1" d="M 186.5 214 L 183.5 218 L 186.5 214 Z " /><path fill="rgb(48,172,48)" stroke="rgb(48,172,48)" stroke-width="1" opacity="1" d="M 181.5 219 L 178.5 223 L 181.5 219 Z " /><path fill="rgb(48,172,48)" stroke="rgb(48,172,48)" stroke-width="1" opacity="1" d="M 30.5 224 L 31.5 226 L 30.5 224 Z " /><path fill="rgb(48,172,48)" stroke="rgb(48,172,48)" stroke-width="1" opacity="1" d="M 175.5 224 L 174.5 226 L 175.5 224 Z " /><path fill="rgb(48,172,48)" stroke="rgb(48,172,48)" stroke-width="1" opacity="1" d="M 36.5 228 L 37.5 230 L 36.5 228 Z " /><path fill="rgb(48,172,48)" stroke="rgb(48,172,48)" stroke-width="1" opacity="1" d="M 169.5 228 L 168.5 230 L 157.5 235 L 157.5 234 L 169.5 228 Z " /><path fill="rgb(48,172,48)" stroke="rgb(48,172,48)" stroke-width="1" opacity="1" d="M 154.5 235 L 156 235.5 L 152.5 237 L 152.5 236 L 154.5 235 Z " /><path fill="rgb(48,172,48)" stroke="rgb(48,172,48)" stroke-width="1" opacity="1" d="M 138.5 240 L 141 240.5 L 138.5 241 L 138.5 240 Z " /><path fill="rgb(48,172,48)" stroke="rgb(48,172,48)" stroke-width="1" opacity="1" d="M 134.5 241 L 137 241.5 L 134.5 242 L 134.5 241 Z " /><path fill="rgb(48,172,48)" stroke="rgb(48,172,48)" stroke-width="1" opacity="1" d="M 73.5 242 L 76 242.5 L 73.5 243 L 73.5 242 Z " /><path fill="rgb(48,172,48)" stroke="rgb(48,172,48)" stroke-width="1" opacity="1" d="M 129.5 242 L 132 242.5 L 129.5 243 L 129.5 242 Z " /><path fill="rgb(48,172,48)" stroke="rgb(48,172,48)" stroke-width="1" opacity="1" d="M 79.5 243 L 83 243.5 L 79.5 244 L 79.5 243 Z " /><path fill="rgb(48,172,48)" stroke="rgb(48,172,48)" stroke-width="1" opacity="1" d="M 122.5 243 L 126 243.5 L 122.5 244 L 122.5 243 Z " /><path fill="rgb(48,172,48)" stroke="rgb(48,172,48)" stroke-width="1" opacity="1" d="M 87.5 244 L 94 244.5 L 87.5 245 L 87.5 244 Z " /><path fill="rgb(48,172,48)" stroke="rgb(48,172,48)" stroke-width="1" opacity="1" d="M 111.5 244 L 118 244.5 L 111.5 245 L 111.5 244 Z " /></svg>