<svg width="86" height="86" version="1.1" xmlns="http://www.w3.org/2000/svg" desc="Created with imagetracer.js version 1.2.6" ><path fill="rgb(219,180,110)" stroke="rgb(219,180,110)" stroke-width="1" opacity="1" d="M 11.5 10 L 12 20.5 L 11 20.5 L 11.5 10 Z " /><path fill="rgb(219,180,110)" stroke="rgb(219,180,110)" stroke-width="1" opacity="1" d="M 19.5 10 L 20.5 12 L 19.5 10 Z " /><path fill="rgb(219,180,110)" stroke="rgb(219,180,110)" stroke-width="1" opacity="1" d="M 34.5 10 L 35 20.5 L 34 20.5 L 34.5 10 Z " /><path fill="rgb(219,180,110)" stroke="rgb(219,180,110)" stroke-width="1" opacity="1" d="M 21.5 13 L 23 15.5 L 19 18.5 L 22 14.5 L 21.5 13 Z " /><path fill="rgb(219,180,110)" stroke="rgb(219,180,110)" stroke-width="1" opacity="1" d="M 24.5 17 L 26.5 20 L 24.5 17 Z " /><path fill="rgb(0,0,0)" stroke="rgb(0,0,0)" stroke-width="1" opacity="0" d="M 0 0 L 86 0 L 86 86 L 0 86 L 0 0 Z M 8 9 L 8 10 L 11 10 L 11 21 L 15 21 L 15 10 L 19 10 L 22 15 L 18 21 Q 23 22 25 18 L 26 21 L 31 21 L 27 16 L 31 10 L 34 10 L 34 21 L 38 21 L 38 10 L 42 10 L 27 9 L 25 12 L 23 11 L 23 9 L 8 9 Z M 39 34 L 39 46 L 51 46 L 51 70 L 64 70 L 64 46 L 76 46 L 76 35 L 76 34 L 39 34 Z M 22 43 L 21 46 L 12 46 L 10 48 L 10 53 L 21 53 L 21 56 L 31 51 Q 33 52 32 49 L 22 43 Z " /><path fill="rgb(129,206,249)" stroke="rgb(129,206,249)" stroke-width="1" opacity="1" d="M 14.5 10 L 15 20.5 L 14 20.5 L 14.5 10 Z " /><path fill="rgb(129,206,249)" stroke="rgb(129,206,249)" stroke-width="1" opacity="1" d="M 29.5 10 L 28.5 12 L 29.5 10 Z " /><path fill="rgb(129,206,249)" stroke="rgb(129,206,249)" stroke-width="1" opacity="1" d="M 37.5 10 L 38 20.5 L 37 20.5 L 37.5 10 Z " /><path fill="rgb(129,206,249)" stroke="rgb(129,206,249)" stroke-width="1" opacity="1" d="M 27.5 13 L 26.5 15 L 27.5 13 Z " /><path fill="rgb(129,206,249)" stroke="rgb(129,206,249)" stroke-width="1" opacity="1" d="M 27.5 16 L 28.5 18 L 27.5 16 Z " /><path fill="rgb(129,206,249)" stroke="rgb(129,206,249)" stroke-width="1" opacity="1" d="M 23.5 18 L 22.5 20 L 23.5 18 Z " /><path fill="rgb(0,161,231)" stroke="rgb(0,161,231)" stroke-width="1" opacity="1" d="M 22.5 10 L 23.5 12 L 22.5 10 Z " /><path fill="rgb(0,161,231)" stroke="rgb(0,161,231)" stroke-width="1" opacity="1" d="M 27.5 12 L 26.5 14 L 27.5 12 Z " /><path fill="rgb(0,161,231)" stroke="rgb(0,161,231)" stroke-width="1" opacity="1" d="M 28.5 18 L 29.5 20 L 28.5 18 Z " /><path fill="rgb(7,1,12)" stroke="rgb(7,1,12)" stroke-width="1" opacity="1" d="M 8.5 9 L 18 9.5 L 14 10 L 14 20.5 L 12 21 L 12 10 L 8.5 10 L 8.5 9 Z " /><path fill="rgb(7,1,12)" stroke="rgb(7,1,12)" stroke-width="1" opacity="1" d="M 19.5 9 Q 22.8 7.9 22 10.5 L 26 12 L 27.5 9 Q 29.8 8.3 29 10.5 Q 25.5 11 26 15.5 L 30 20.5 L 27 21 L 24.5 17 Q 22.3 16.3 23 18.5 L 19 21 L 23 14.5 L 19.5 9 Z " /><path fill="rgb(7,1,12)" stroke="rgb(7,1,12)" stroke-width="1" opacity="1" d="M 31.5 9 L 41 9.5 L 37 10 L 37 20.5 L 35 21 L 35 10 L 31.5 10 L 31.5 9 Z " /><path fill="rgb(7,1,12)" stroke="rgb(7,1,12)" stroke-width="1" opacity="1" d="M 21.5 43 L 32 49 Q 33.1 51.7 30.5 51 L 21 56 L 20.5 53 L 10 53 L 10 47.5 L 11.5 46 L 21 46 L 21.5 43 Z M 23 45 L 22 47 L 11 47 L 11 52 L 22 52 L 23 55 L 29 52 L 30 50 L 23 45 Z " /><path fill="rgb(0,162,232)" stroke="rgb(0,162,232)" stroke-width="1" opacity="1" d="M 39 34 L 75.5 34 L 76 34.5 L 76 46 L 64 46 L 64 70 L 51 70 L 51 46 L 39 46 L 39 34 Z " /><path fill="rgb(0,162,232)" stroke="rgb(0,162,232)" stroke-width="1" opacity="1" d="M 22.5 45 L 30 49.5 L 28.5 52 L 22.5 55 L 22 52 L 11 52 L 11 47 L 21.5 47 L 22.5 45 Z " /></svg>